<?xml version="1.0" standalone="no"?>
<!DOCTYPE svg PUBLIC "-//W3C//DTD SVG 20010904//EN"
 "http://www.w3.org/TR/2001/REC-SVG-20010904/DTD/svg10.dtd">
<svg version="1.0" xmlns="http://www.w3.org/2000/svg"
 width="850.000000pt" height="565.000000pt" viewBox="0 0 850.000000 565.000000"
 preserveAspectRatio="xMidYMid meet">

<g transform="translate(0.000000,565.000000) scale(0.100000,-0.100000)"
fill="#000000" stroke="none">
<path d="M695 5399 c-87 -55 -142 -156 -152 -279 -11 -136 19 -919 48 -1262
l12 -136 38 -17 c62 -28 102 -26 594 41 312 41 325 44 325 55 0 5 -13 17 -29
27 l-29 17 24 28 c13 16 24 40 24 55 l0 27 16 -32 c10 -20 29 -37 48 -44 l32
-12 -29 -29 c-16 -16 -27 -32 -24 -35 4 -3 49 0 101 7 l95 13 -28 32 c-30 35
-34 54 -47 297 l-7 117 73 -25 c76 -25 198 -57 263 -68 36 -7 37 -8 37 -52 0
-42 1 -43 20 -32 11 7 20 18 20 24 0 18 35 58 70 78 32 18 32 18 21 -2 -6 -11
-11 -31 -11 -44 0 -21 9 -28 63 -46 34 -12 79 -22 100 -22 20 0 37 -2 37 -5 0
-2 -12 -25 -26 -51 -32 -57 -60 -139 -69 -199 -12 -75 13 -63 179 87 118 106
189 143 255 134 25 -3 63 -15 83 -25 53 -26 47 -10 -14 39 -44 35 -58 41 -88
37 -19 -2 -43 -7 -52 -11 -12 -6 -20 0 -31 20 -14 27 -14 29 24 56 24 18 51
28 73 28 42 0 163 -36 172 -52 13 -21 35 65 44 177 15 175 -12 722 -41 855
-18 82 -58 117 -163 144 -80 21 -565 51 -1226 76 -300 11 -599 24 -664 28
-117 7 -120 7 -161 -19z m1085 -199 c0 -5 -5 -10 -11 -10 -5 0 -7 5 -4 10 3 6
8 10 11 10 2 0 4 -4 4 -10z m-1160 -35 c0 -8 -7 -15 -15 -15 -8 0 -15 7 -15
15 0 8 7 15 15 15 8 0 15 -7 15 -15z m960 -19 c0 -3 -4 -8 -10 -11 -5 -3 -10
-1 -10 4 0 6 5 11 10 11 6 0 10 -2 10 -4z m-823 -22 c-3 -3 -12 -4 -19 -1 -8
3 -5 6 6 6 11 1 17 -2 13 -5z m1741 -31 c5 -17 -26 -29 -40 -15 -6 6 -7 15 -3
22 9 14 37 9 43 -7z m-418 -23 c0 -5 -5 -10 -11 -10 -5 0 -7 5 -4 10 3 6 8 10
11 10 2 0 4 -4 4 -10z m684 -111 c-3 -5 -10 -7 -15 -3 -5 3 -7 10 -3 15 3 5
10 7 15 3 5 -3 7 -10 3 -15z m81 -19 c3 -5 1 -10 -4 -10 -6 0 -11 5 -11 10 0
6 2 10 4 10 3 0 8 -4 11 -10z m-59 -88 c-4 -3 -11 0 -16 8 -15 24 -11 33 6 15
9 -9 13 -19 10 -23z m-614 -14 c-15 -15 -26 -4 -18 18 5 13 9 15 18 6 9 -9 9
-15 0 -24z m103 -8 c3 -5 1 -10 -4 -10 -6 0 -11 5 -11 10 0 6 2 10 4 10 3 0 8
-4 11 -10z m-215 -20 c0 -5 -4 -10 -10 -10 -5 0 -10 5 -10 10 0 6 5 10 10 10
6 0 10 -4 10 -10z m-794 -147 c-10 -10 -19 5 -10 18 6 11 8 11 12 0 2 -7 1
-15 -2 -18z m-76 -33 c0 -5 -2 -10 -4 -10 -3 0 -8 5 -11 10 -3 6 -1 10 4 10 6
0 11 -4 11 -10z m-150 -65 c0 -8 -4 -15 -10 -15 -5 0 -10 7 -10 15 0 8 5 15
10 15 6 0 10 -7 10 -15z m1414 -56 c-6 -11 -24 -2 -24 11 0 5 7 7 15 4 8 -4
12 -10 9 -15z m-137 -20 c15 -5 39 -22 53 -36 26 -28 29 -67 9 -130 -8 -26 -6
-41 11 -79 24 -55 20 -76 -16 -93 -35 -16 -64 3 -88 57 -14 31 -25 42 -50 46
-64 13 -100 69 -86 131 12 54 41 88 86 102 50 15 48 15 81 2z m-1467 -49 c0
-5 -2 -10 -4 -10 -3 0 -8 5 -11 10 -3 6 -1 10 4 10 6 0 11 -4 11 -10z m1640
-10 c0 -5 9 -18 21 -28 17 -16 18 -20 5 -25 -8 -3 -19 -21 -25 -39 -9 -32 -9
-32 -10 -5 -1 15 -10 36 -20 46 -16 16 -17 20 -5 25 8 3 14 12 14 21 0 8 5 15
10 15 6 0 10 -4 10 -10z m-1505 -90 c3 -5 -1 -10 -9 -10 -9 0 -16 5 -16 10 0
6 4 10 9 10 6 0 13 -4 16 -10z m428 -32 c7 -23 -4 -38 -29 -38 -17 0 -24 6
-24 18 0 10 3 22 7 25 11 12 41 8 46 -5z m1082 -17 c3 -5 1 -12 -5 -16 -5 -3
-10 1 -10 9 0 18 6 21 15 7z m-835 -210 c17 -7 19 -10 8 -10 -20 -1 -38 -30
-38 -63 -1 -20 -2 -19 -14 8 -8 18 -22 36 -31 41 -15 9 -15 11 -1 22 9 8 16
23 16 35 l0 21 18 -22 c9 -12 28 -27 42 -32z m-810 -156 c0 -8 -4 -15 -9 -15
-13 0 -22 16 -14 24 11 11 23 6 23 -9z"/>
<path d="M6845 5063 c-22 -14 -53 -37 -68 -51 -72 -68 -137 -222 -137 -327 0
-56 2 -63 26 -75 20 -11 29 -12 42 -2 26 19 74 40 103 46 23 5 28 12 34 53 9
61 26 89 67 103 32 12 33 14 30 61 -3 41 0 52 21 71 22 21 24 29 19 79 -4 54
-6 57 -34 63 -47 9 -60 7 -103 -21z"/>
<path d="M7068 4973 c-14 -4 -18 -15 -18 -56 l0 -52 25 37 c14 20 25 46 25 57
0 21 -2 22 -32 14z"/>
<path d="M7030 4831 c-5 -11 -18 -22 -29 -26 -14 -4 -20 -19 -26 -62 -8 -64
-38 -103 -80 -103 -16 0 -25 -6 -25 -16 0 -8 -13 -29 -29 -45 -26 -25 -37 -29
-89 -29 -58 0 -73 -8 -96 -47 -5 -9 -2 -11 10 -6 14 5 16 2 10 -18 -4 -13 -9
-40 -12 -59 -6 -39 -8 -40 48 36 22 30 46 44 98 59 14 4 35 17 48 28 12 11 22
15 22 9 0 -7 -15 -21 -32 -32 -22 -13 -27 -20 -15 -20 10 0 17 -8 17 -20 0
-23 18 -26 44 -7 15 11 16 17 7 35 -14 26 -14 33 0 30 13 -3 31 50 23 64 -7
11 29 10 61 -2 15 -6 45 -7 67 -3 l41 6 -27 22 c-14 11 -23 24 -20 28 13 12
94 7 132 -8 l37 -15 -23 20 c-24 20 -82 40 -115 40 -28 0 -58 -20 -51 -32 5
-8 1 -9 -10 -5 -10 4 -23 7 -29 7 -9 0 -9 2 -1 8 6 4 19 22 29 41 9 18 37 53
62 78 25 24 43 47 39 50 -3 4 -21 2 -40 -4 -28 -9 -34 -8 -29 3 8 21 -5 17
-17 -5z"/>
<path d="M6997 4502 l-28 -13 26 -21 c14 -11 37 -42 50 -69 28 -54 33 -74 10
-42 -8 11 -33 28 -55 37 -37 15 -43 14 -87 -2 -47 -18 -48 -19 -46 -58 l3 -39
-17 33 c-11 22 -24 32 -39 32 -13 0 -26 5 -29 10 -3 6 -29 10 -56 10 -31 0
-48 -4 -44 -10 3 -5 13 -10 21 -10 16 0 124 -69 124 -79 0 -13 -61 -11 -88 2
-15 8 -43 17 -62 21 -19 3 -54 10 -77 14 l-42 9 40 -59 41 -59 -34 17 c-18 9
-50 28 -71 41 -22 14 -42 21 -45 18 -9 -9 42 -50 98 -80 47 -25 45 -29 -21
-38 -20 -3 -60 -16 -89 -28 l-53 -23 27 -23 c33 -28 48 -29 72 -2 30 34 90 59
138 59 52 0 62 -10 95 -101 25 -66 51 -93 107 -109 84 -25 135 36 79 93 -15
14 -41 27 -58 29 -22 2 -31 8 -29 18 2 8 6 59 9 113 5 84 8 95 21 85 8 -7 18
-21 22 -33 7 -15 9 -7 10 30 l0 50 21 -25 c15 -19 18 -34 14 -62 -4 -33 -2
-39 25 -55 17 -10 33 -28 36 -40 4 -13 7 -23 8 -23 0 0 28 -5 61 -10 44 -8 71
-7 102 2 38 11 43 16 59 66 14 46 15 63 5 106 -32 141 -170 260 -254 218z"/>
<path d="M6930 4500 c8 -5 20 -10 25 -10 6 0 3 5 -5 10 -8 5 -19 10 -25 10 -5
0 -3 -5 5 -10z"/>
<path d="M4700 4261 c-45 -24 -75 -57 -94 -102 -13 -31 -13 -39 -1 -62 13 -25
13 -27 -9 -27 -36 0 -86 -20 -142 -56 -27 -18 -75 -38 -105 -44 -108 -22 -119
-40 -79 -127 l19 -42 -55 -31 c-59 -34 -62 -56 -7 -47 32 6 35 4 29 -16 -11
-41 15 -125 52 -168 l36 -42 18 23 c10 12 18 28 18 36 0 7 5 25 12 39 11 24
12 24 30 8 13 -11 38 -17 76 -18 32 -1 67 -7 79 -14 12 -6 47 -11 78 -11 53 0
55 1 45 20 -11 20 -10 20 26 5 21 -8 40 -12 43 -8 3 5 38 8 77 8 61 0 76 4
110 28 22 15 45 27 51 27 14 0 57 -67 73 -114 10 -31 10 -53 0 -111 -10 -58
-10 -84 0 -124 10 -44 10 -55 -4 -76 -21 -32 -10 -32 45 4 45 28 46 28 70 10
25 -20 49 -25 49 -11 0 12 -40 47 -75 65 -16 9 -26 16 -22 17 5 0 17 -5 28
-11 16 -8 25 -7 39 6 17 15 21 15 49 0 30 -15 51 -13 51 5 0 4 -19 17 -42 29
-24 12 -38 21 -32 21 14 0 54 120 54 160 0 23 5 30 19 30 17 0 18 4 9 36 -8
30 -6 45 12 87 37 86 8 193 -71 264 -23 21 -66 62 -95 92 -52 53 -53 54 -99
48 -32 -5 -57 -2 -83 9 -24 11 -63 16 -109 16 -58 -1 -77 3 -104 21 -44 30
-55 66 -36 123 8 24 12 44 8 44 -3 -1 -22 -9 -41 -19z m274 -252 c-16 -17 -38
-35 -49 -40 -11 -6 0 8 25 30 53 49 65 53 24 10z m219 -656 c-13 -2 -33 -2
-45 0 -13 2 -3 4 22 4 25 0 35 -2 23 -4z"/>
<path d="M7323 4249 c-16 -16 24 -82 44 -75 8 3 17 6 19 6 10 0 2 24 -17 51
-22 32 -29 35 -46 18z"/>
<path d="M3025 4200 c8 -16 20 -51 26 -79 19 -88 -14 -152 -100 -196 -33 -17
-33 -17 -65 14 -64 62 -175 90 -224 56 -12 -9 -40 -48 -64 -88 -23 -40 -58
-92 -78 -117 -69 -85 -64 -94 12 -22 63 58 47 23 -21 -47 -73 -75 -140 -86
-249 -40 -67 29 -109 66 -126 112 l-16 42 5 -44 c14 -109 78 -200 155 -221 22
-6 44 -18 47 -27 3 -8 26 -28 50 -43 49 -31 43 -44 -14 -35 -37 6 -38 5 -15
-11 40 -30 20 -74 -40 -89 -36 -9 -68 -1 -96 25 -21 20 -22 20 -22 2 0 -29 36
-69 75 -83 42 -16 58 -55 59 -145 1 -46 -4 -67 -17 -81 -15 -17 -16 -32 -11
-105 8 -96 2 -106 -50 -88 -32 10 -34 14 -41 67 -17 139 -91 251 -147 222 -9
-5 -20 -18 -23 -30 -4 -12 -10 -17 -14 -13 -13 15 -44 182 -37 199 3 9 2 13
-4 10 -6 -3 -10 -12 -10 -20 0 -18 -83 -78 -151 -110 l-54 -25 60 0 c58 0 63
2 100 40 21 21 42 37 46 35 4 -3 13 -36 20 -75 l12 -70 -27 -21 c-14 -11 -33
-33 -40 -48 -8 -15 -25 -33 -39 -40 -23 -12 -24 -16 -14 -50 6 -20 17 -42 24
-49 7 -7 13 -20 13 -28 0 -18 35 -88 63 -126 30 -40 99 -78 141 -78 20 0 36
-2 36 -5 0 -3 -16 -29 -35 -58 -19 -28 -35 -60 -35 -71 0 -16 5 -18 54 -12 62
8 131 -7 140 -30 14 -36 -30 -74 -85 -74 l-33 0 33 -34 c27 -28 35 -45 39 -85
4 -43 7 -49 21 -42 9 5 42 14 75 21 50 10 60 16 69 41 7 18 19 29 30 29 15 0
18 6 13 28 -23 126 -17 185 54 482 12 52 44 134 53 138 4 2 18 25 31 51 14 26
45 66 70 89 39 36 52 42 88 42 29 0 38 3 29 9 -10 6 4 14 45 26 33 9 69 23 82
31 30 19 52 4 52 -36 0 -23 -7 -31 -37 -43 -33 -13 -40 -13 -54 -1 -8 8 -29
14 -45 13 -16 0 -22 -3 -14 -6 8 -3 27 -15 42 -25 28 -19 29 -19 110 1 46 11
116 23 155 26 84 8 72 -15 98 190 9 66 20 135 26 153 11 33 24 41 32 20 2 -7
10 19 16 58 12 69 14 72 43 78 17 3 33 4 35 2 5 -5 -18 -57 -34 -77 -11 -13
-9 -19 12 -37 l25 -22 14 23 c102 155 112 353 21 444 -18 18 -40 33 -48 33 -8
0 -25 -20 -37 -45 -12 -25 -51 -74 -87 -110 -61 -61 -65 -68 -61 -104 5 -52
-6 -43 -22 16 -20 80 -31 103 -64 129 l-31 25 43 -21 c51 -25 54 -21 50 71 -3
60 -4 64 -25 61 -18 -3 -23 2 -23 20 0 13 -16 49 -36 81 -38 61 -55 76 -29 27z
m-143 -471 c19 -10 57 -81 58 -106 0 -7 -10 -13 -21 -13 -18 0 -19 2 -9 15 8
10 9 15 1 15 -13 0 -25 -44 -18 -70 5 -18 0 -20 -42 -20 -41 0 -49 3 -59 25
-19 42 -15 109 9 139 22 28 48 33 81 15z m199 -41 c13 -49 5 -104 -17 -112
-11 -4 -15 0 -14 17 1 12 -1 33 -5 45 -6 18 -10 21 -17 10 -12 -17 0 50 14 75
13 25 26 13 39 -35z m287 40 c-3 -7 -24 -17 -49 -23 l-44 -11 -10 -59 c-15
-85 -34 -84 -23 2 12 90 12 91 50 96 67 8 80 7 76 -5z m-273 -427 c-19 -37
-58 -67 -64 -49 -3 10 63 78 76 78 2 0 -3 -13 -12 -29z m-486 -46 c57 -15 102
-45 68 -45 -26 0 -82 -55 -102 -100 l-18 -41 -19 28 c-44 65 -57 118 -38 154
13 23 36 24 109 4z m-147 -104 c-9 -50 -19 -92 -22 -93 -3 0 -19 8 -37 19
l-31 19 25 49 c22 46 72 109 79 102 2 -2 -4 -45 -14 -96z m-119 -677 c11 -11
-5 -35 -34 -50 -16 -8 -29 -11 -29 -7 0 5 10 13 23 18 12 6 21 18 21 28 -2 17
7 22 19 11z m21 -49 c-7 -17 -35 -35 -55 -35 -7 0 2 11 21 25 40 29 41 30 34
10z m6 -40 c0 -2 -10 -10 -22 -16 -21 -11 -22 -11 -9 4 13 16 31 23 31 12z"/>
<path d="M6911 4123 c-1 -50 0 -53 24 -53 42 0 75 -41 75 -95 0 -54 25 -63 41
-15 6 17 16 30 21 30 6 0 -1 11 -16 25 -14 13 -26 31 -26 39 0 8 -19 24 -42
34 -47 20 -63 36 -71 67 -2 11 -5 -4 -6 -32z"/>
<path d="M7336 4075 c-4 -12 -10 -14 -25 -5 -30 16 -43 12 -36 -10 3 -10 2
-34 -3 -53 -7 -24 -6 -38 3 -51 12 -16 14 -16 20 4 4 11 4 34 0 50 -6 29 -6
29 24 19 17 -6 34 -15 37 -20 12 -19 24 -7 24 24 0 46 -31 75 -44 42z"/>
<path d="M2969 4053 c-10 -3 -18 -18 -22 -41 -3 -20 -9 -46 -13 -57 -7 -18 -6
-18 9 -7 16 13 54 100 46 105 -2 2 -11 2 -20 0z"/>
<path d="M6612 4033 c-48 -23 -108 -97 -147 -178 -31 -66 -60 -153 -53 -160 2
-2 18 9 36 23 24 20 37 42 48 86 32 123 91 209 153 222 14 3 35 9 46 14 16 7
14 9 -15 9 -19 0 -50 -7 -68 -16z"/>
<path d="M2265 4015 c-89 -27 -145 -31 -164 -12 -10 10 -11 -2 -9 -58 l3 -70
40 3 c31 3 46 11 67 36 15 18 53 50 85 72 97 64 97 64 -22 29z"/>
<path d="M7155 4001 c-3 -17 -12 -34 -19 -38 -10 -7 -10 -15 1 -41 11 -28 16
-32 28 -22 17 14 20 96 6 119 -7 10 -11 5 -16 -18z"/>
<path d="M7030 3923 c-24 -9 -52 -36 -61 -60 -5 -14 -1 -51 12 -103 22 -95 26
-161 7 -142 -7 7 -11 35 -10 64 1 49 0 51 -9 21 -11 -36 -24 -41 -55 -18 -20
13 -22 12 -40 -22 -25 -47 -41 -52 -49 -15 -8 38 -71 112 -95 112 -10 0 -22 5
-25 10 -3 6 -15 10 -26 10 -11 0 -36 12 -54 26 l-34 26 -34 -21 c-29 -18 -34
-26 -35 -65 -2 -43 -2 -44 35 -50 21 -4 74 -24 118 -46 44 -21 97 -41 119 -45
63 -11 27 -25 -47 -18 -57 5 -64 8 -50 19 16 11 13 13 -20 19 -63 12 -266 -31
-332 -69 -41 -25 -75 -79 -75 -122 0 -13 -7 -14 -40 -9 l-40 7 0 -41 c0 -33
-9 -52 -50 -106 -27 -36 -51 -76 -51 -88 -4 -45 -5 -53 -12 -75 -6 -15 -3 -32
10 -55 18 -30 18 -35 4 -80 -15 -43 -17 -46 -29 -27 -21 34 -54 34 -106 2
l-47 -30 -57 16 c-64 18 -395 24 -512 8 -45 -5 -62 -5 -55 2 14 15 127 32 218
32 l77 0 27 55 c20 41 33 55 48 55 45 0 122 31 153 61 46 45 59 95 40 154
l-16 46 37 16 c20 8 50 18 66 22 50 11 70 80 27 95 -9 3 -28 14 -42 26 l-25
20 -105 -43 c-58 -24 -177 -75 -266 -112 l-160 -69 24 -21 c33 -28 47 -116 23
-141 -9 -9 0 -5 19 9 19 14 78 46 130 71 93 44 97 48 123 102 16 31 31 54 34
50 11 -11 -52 -119 -77 -132 -14 -7 -59 -29 -101 -47 -61 -28 -91 -50 -148
-108 -73 -76 -93 -85 -41 -19 17 21 30 40 30 43 0 10 -83 -23 -102 -40 -16
-15 -16 -17 -1 -28 12 -9 14 -20 9 -48 -8 -42 -12 -44 -38 -20 -24 21 -41 12
-84 -45 -18 -22 -35 -38 -38 -34 -4 3 -4 0 -1 -9 3 -8 -3 -24 -14 -36 -11 -11
-18 -23 -15 -26 3 -3 -3 -4 -12 -4 -24 3 -44 -39 -44 -93 0 -25 -4 -61 -10
-80 -5 -19 -14 -66 -19 -105 l-8 -70 -2 105 c-2 81 -5 99 -12 80 -12 -30 -69
-283 -73 -324 -2 -16 -13 -36 -27 -46 -18 -14 -23 -28 -24 -62 0 -42 0 -43
-37 -46 -44 -4 -50 -17 -10 -25 43 -9 54 -51 26 -110 l-22 -48 -6 36 c-4 19
-20 50 -35 68 l-28 32 18 50 c21 58 24 89 8 79 -18 -11 -69 -96 -63 -105 3 -5
-15 -9 -40 -9 -101 0 -218 -72 -357 -217 -107 -113 -193 -242 -274 -408 -98
-203 -136 -300 -155 -394 -17 -85 -29 -102 -57 -83 -29 18 98 395 192 570 104
192 216 337 350 451 37 31 42 38 20 27 -16 -8 -59 -40 -95 -70 -36 -31 -68
-56 -72 -56 -5 0 -8 10 -8 21 0 32 -49 116 -84 143 -78 59 -114 70 -251 76
l-130 5 45 18 c46 19 60 32 60 56 0 10 -10 12 -39 8 -34 -4 -39 -2 -38 13 1
10 4 17 8 14 8 -5 64 81 74 114 5 18 2 22 -14 22 -19 0 -21 6 -21 59 0 44 5
65 21 85 11 14 18 32 16 39 -4 9 -6 9 -6 0 -2 -25 -27 -12 -46 23 -11 20 -39
52 -62 71 -36 30 -43 41 -43 72 0 20 -11 59 -24 86 -23 50 -95 125 -119 125
-6 0 2 -9 19 -19 53 -32 113 -136 114 -195 0 -27 -2 -28 -32 -22 -18 4 -68 9
-111 13 -67 5 -80 9 -86 26 -7 20 -8 20 -15 -4 -5 -13 -7 -28 -7 -33 1 -5 -17
-6 -41 -2 l-43 6 24 -19 c38 -29 97 -44 122 -31 11 7 23 9 26 7 9 -10 -56 -37
-89 -37 -18 0 -53 9 -78 20 -31 14 -39 15 -25 5 11 -9 30 -18 43 -22 46 -11
21 -24 -35 -18 -98 11 -161 33 -206 72 l-42 37 40 -42 c21 -23 35 -42 30 -42
-6 0 -21 -10 -35 -21 -14 -11 -20 -18 -15 -16 17 9 147 -27 202 -56 98 -51
179 -29 204 53 7 21 24 51 39 65 25 24 31 26 66 16 58 -16 137 -65 140 -87 28
-176 28 -180 0 -283 -22 -79 -27 -114 -24 -180 2 -44 0 -81 -4 -81 -3 0 -9
-13 -13 -29 -3 -16 -22 -47 -41 -69 l-35 -41 41 -12 c37 -11 51 -9 173 29 73
23 141 42 150 42 21 0 21 -11 2 -94 -20 -87 -9 -110 50 -103 22 3 48 8 58 12
12 5 1 -18 -33 -71 -64 -98 -146 -261 -190 -376 -18 -48 -36 -85 -41 -83 -18
12 -119 -37 -153 -75 -45 -50 -56 -93 -59 -237 -2 -116 -1 -121 26 -162 15
-23 48 -56 72 -73 29 -21 45 -40 49 -61 12 -58 39 -106 65 -115 21 -8 12 -11
-51 -17 l-77 -7 15 -30 c16 -30 17 -31 77 -24 237 24 277 19 277 -34 0 -24 15
-45 78 -107 67 -67 74 -78 55 -81 -22 -3 -114 11 -145 23 -21 8 -23 -9 -8 -49
13 -34 65 -48 168 -44 l83 3 34 80 c63 146 93 170 203 169 42 0 105 -9 139
-19 l63 -18 35 24 c29 20 35 30 35 62 0 36 -15 59 -54 82 -14 9 -15 17 -5 72
10 56 17 69 64 117 55 56 56 59 71 189 l6 58 37 -39 c73 -79 144 -96 321 -78
126 12 152 23 167 69 18 54 3 114 -37 150 -30 27 -35 28 -99 21 l-68 -6 -35
63 c-32 57 -40 98 -17 83 5 -3 6 3 2 13 -6 16 -5 17 12 3 18 -15 18 -14 1 13
-21 31 -28 35 -19 10 4 -9 2 -14 -3 -10 -6 3 -16 1 -24 -5 -12 -8 -11 -8 5 -3
17 5 18 4 7 -7 -11 -11 -16 -10 -28 6 -11 16 -11 22 -1 28 9 6 8 8 -4 8 -9 0
-36 11 -60 24 -24 13 -70 29 -101 36 -48 9 -59 16 -64 35 -3 13 -13 26 -21 29
-9 4 -13 1 -11 -6 3 -7 -3 -20 -11 -30 -9 -10 -17 -23 -17 -28 -1 -6 -2 -15
-3 -20 -1 -15 -40 7 -69 38 -27 29 -36 25 -23 -11 11 -27 49 -59 63 -51 4 3 8
0 8 -5 0 -6 6 -11 14 -11 31 0 69 -21 59 -31 -14 -14 -76 3 -123 33 -21 13
-48 21 -68 19 -43 -3 -132 27 -132 45 0 18 41 28 95 22 40 -5 43 -4 32 13 -33
53 -206 17 -251 -53 -8 -13 -16 -32 -18 -43 -3 -18 3 -20 54 -20 63 -1 81 -12
129 -82 16 -22 44 -51 63 -62 25 -16 33 -27 29 -41 -15 -56 -134 -106 -285
-120 -90 -9 -292 1 -349 18 l-26 7 29 100 c64 220 244 527 395 672 79 75 141
96 115 38 -16 -35 9 -34 37 2 25 31 30 28 46 -34 12 -48 12 -48 68 -59 61 -12
67 -10 67 18 0 17 2 18 30 3 16 -8 37 -15 46 -15 9 0 31 -15 48 -33 28 -30 47
-38 170 -68 l138 -34 29 33 c30 33 45 37 113 25 30 -5 40 -12 48 -34 l10 -28
24 28 c20 24 34 29 90 35 37 4 98 13 137 22 69 14 71 14 94 -8 12 -12 23 -29
23 -39 0 -23 35 -47 78 -55 18 -4 31 -9 29 -13 -63 -117 -66 -135 -52 -289 6
-62 11 -75 31 -89 33 -22 117 -12 181 20 45 23 50 24 61 9 9 -13 11 -14 9 -2
-6 38 146 70 160 34 3 -9 1 -25 -6 -36 -27 -43 49 16 81 62 17 25 28 38 26 30
-21 -62 -24 -58 46 -65 118 -13 214 23 242 91 13 30 19 34 52 34 l37 1 -25 19
c-81 65 -210 170 -246 203 -55 50 -62 72 -33 103 33 35 86 32 184 -12 171 -76
182 -78 230 -26 32 34 31 38 -5 51 -17 5 -33 17 -36 25 -3 8 21 49 59 98 61
80 98 158 126 263 6 23 24 62 41 87 24 36 38 47 67 53 101 19 247 116 282 187
26 56 29 156 5 194 -23 35 -65 54 -118 54 l-44 0 14 58 c18 77 17 115 -5 195
-11 42 -14 67 -8 67 6 0 4 6 -5 13 -8 6 -41 68 -72 137 l-58 125 7 80 c4 44
10 97 15 117 7 35 6 37 -11 27 -11 -5 -19 -16 -19 -24 0 -11 -12 -15 -44 -15
-63 0 -86 33 -86 123 0 61 2 67 30 87 16 12 46 24 66 27 34 6 39 3 99 -61 35
-37 66 -63 69 -58 6 11 -16 88 -39 133 -44 87 -151 161 -205 142z m-812 -1086
c3 -37 18 -47 39 -26 16 16 37 -58 39 -141 3 -95 28 -162 78 -208 69 -64 219
-109 335 -100 l60 4 -62 -40 c-34 -22 -96 -76 -138 -119 -60 -61 -82 -78 -100
-75 -22 3 -24 7 -24 68 0 77 -16 107 -75 146 -36 24 -40 30 -34 58 7 40 -20
110 -49 129 -88 57 -212 8 -262 -103 -10 -22 -22 -40 -26 -40 -4 0 -13 17 -20
38 -19 61 -24 60 -29 -3 -4 -44 -9 -60 -20 -60 -12 0 -16 19 -18 95 -4 127 15
328 33 357 9 14 41 30 85 45 56 17 70 26 67 39 -4 15 2 14 57 -5 59 -21 61
-23 64 -59z m-2695 -44 c-7 -2 -21 -2 -30 0 -10 3 -4 5 12 5 17 0 24 -2 18 -5z
m3443 -466 c85 -92 58 -217 -74 -339 -88 -81 -178 -138 -218 -138 -19 0 -34 5
-34 10 0 6 9 10 19 10 11 0 29 12 41 28 31 39 25 126 -13 176 -36 46 -58 58
-114 58 l-46 0 74 74 c83 85 156 141 197 155 15 4 51 7 81 5 48 -3 58 -7 87
-39z m-1327 -83 c22 -19 45 -51 51 -70 17 -49 7 -164 -15 -180 -14 -11 -8 -12
37 -7 70 7 162 -12 195 -42 26 -22 27 -24 13 -64 -16 -50 -14 -49 -104 -73
-103 -27 -428 -35 -528 -12 -87 20 -127 36 -194 79 -42 27 -55 42 -65 75 -10
32 -10 45 1 64 12 23 56 40 82 32 7 -3 26 -7 41 -10 28 -7 28 -6 12 18 -21 31
-26 189 -7 208 16 17 58 -6 78 -42 46 -84 70 -160 42 -132 -7 7 -19 12 -27 12
-11 0 -11 -4 3 -19 19 -21 13 -46 -10 -37 -8 3 -14 -1 -14 -9 0 -7 -8 -15 -17
-17 -14 -2 -10 -8 17 -25 19 -12 42 -23 50 -25 8 -2 18 -11 22 -20 5 -13 19
-18 48 -18 33 0 40 3 40 20 0 23 -34 44 -61 37 -10 -3 -17 -1 -13 4 10 17 92
9 157 -16 l66 -24 53 20 c38 14 44 18 21 14 -28 -4 -33 -1 -33 16 0 31 -39 99
-57 99 -14 0 -14 -2 1 -19 20 -22 14 -41 -13 -41 -25 0 -42 20 -32 39 5 9 11
40 15 69 9 72 25 102 61 118 41 18 40 18 84 -22z m-659 -158 c0 -2 -7 -7 -16
-10 -8 -3 -12 -2 -9 4 6 10 25 14 25 6z m-109 -207 c20 -29 20 -29 0 -29 -11
0 -23 5 -26 10 -4 6 -11 7 -17 4 -8 -5 -9 1 -5 17 4 13 7 35 7 49 l1 25 10
-24 c5 -13 18 -36 30 -52z m1234 41 c3 -6 -1 -7 -9 -4 -18 7 -21 14 -7 14 6 0
13 -4 16 -10z m125 -75 c34 -40 -46 -115 -124 -115 -20 0 -45 -5 -55 -12 -22
-13 -51 -5 -51 16 0 8 9 18 20 21 11 3 20 14 20 24 0 21 35 56 70 70 39 15
106 13 120 -4z m73 -97 c14 -18 28 -43 32 -55 3 -13 10 -23 15 -23 11 0 30
-57 30 -92 0 -46 -20 -115 -41 -136 -14 -16 -31 -20 -73 -20 l-54 1 9 31 c23
81 -2 172 -62 219 -33 26 -34 27 -9 27 30 0 85 32 102 60 17 27 23 26 51 -12z
m116 -43 c0 -5 -6 1 -14 15 -8 14 -14 30 -14 35 0 6 6 -1 14 -15 8 -14 14 -29
14 -35z m97 -212 c-3 -3 -20 -3 -39 1 l-34 6 -5 78 c-3 42 -9 86 -12 97 -4 11
16 -24 44 -79 28 -54 49 -100 46 -103z m-1626 -73 c0 -5 -4 -10 -10 -10 -5 0
-10 5 -10 10 0 6 5 10 10 10 6 0 10 -4 10 -10z m485 -240 c10 -16 -42 -43 -71
-36 -32 9 -26 29 12 37 44 10 52 10 59 -1z"/>
<path d="M6070 2833 c-88 -32 -115 -58 -103 -102 5 -19 6 -19 50 1 39 17 58
19 125 13 49 -4 78 -3 78 3 0 6 -5 12 -12 14 -6 2 -17 20 -23 39 -11 31 -15
34 -56 36 -24 1 -51 -1 -59 -4z"/>
<path d="M5495 1893 c-23 -12 -57 -16 -142 -16 -62 0 -113 -1 -113 -2 0 -2 23
-17 50 -35 43 -28 57 -32 93 -27 22 3 46 12 52 19 18 23 96 52 134 50 l36 -2
-25 14 c-32 19 -48 19 -85 -1z"/>
<path d="M6863 3893 c-24 -4 -31 -27 -13 -38 6 -3 10 -19 10 -36 0 -29 7 -35
25 -21 10 7 15 103 5 101 -3 -1 -15 -4 -27 -6z"/>
<path d="M5398 3863 c6 -2 18 -2 25 0 6 3 1 5 -13 5 -14 0 -19 -2 -12 -5z"/>
<path d="M5406 3814 c-5 -14 -4 -15 9 -4 17 14 19 20 6 20 -5 0 -12 -7 -15
-16z"/>
<path d="M5461 3823 c0 -4 4 -17 9 -28 8 -19 9 -19 9 2 1 12 -3 25 -9 28 -5 3
-10 3 -9 -2z"/>
<path d="M7306 3666 c3 -9 11 -16 16 -16 13 0 5 23 -10 28 -7 2 -10 -2 -6 -12z"/>
<path d="M7572 3663 c-17 -7 -62 -74 -56 -85 3 -4 32 11 64 34 33 23 57 45 54
50 -6 9 -41 10 -62 1z"/>
<path d="M4120 3638 c0 -9 5 -20 10 -23 13 -8 13 5 0 25 -8 13 -10 13 -10 -2z"/>
<path d="M4170 3618 c-12 -22 -12 -22 6 -6 10 10 15 20 12 24 -4 3 -12 -5 -18
-18z"/>
<path d="M5610 3615 c0 -8 2 -15 4 -15 2 0 6 7 10 15 3 8 1 15 -4 15 -6 0 -10
-7 -10 -15z"/>
<path d="M5555 3610 c3 -5 8 -10 11 -10 2 0 4 5 4 10 0 6 -5 10 -11 10 -5 0
-7 -4 -4 -10z"/>
<path d="M4088 3593 c6 -2 18 -2 25 0 6 3 1 5 -13 5 -14 0 -19 -2 -12 -5z"/>
<path d="M4188 3573 c6 -2 18 -2 25 0 6 3 1 5 -13 5 -14 0 -19 -2 -12 -5z"/>
<path d="M5638 3573 c7 -3 16 -2 19 1 4 3 -2 6 -13 5 -11 0 -14 -3 -6 -6z"/>
<path d="M4105 3559 c-11 -17 1 -21 15 -4 8 9 8 15 2 15 -6 0 -14 -5 -17 -11z"/>
<path d="M4150 3553 c0 -12 5 -25 10 -28 13 -8 13 15 0 35 -8 12 -10 11 -10
-7z"/>
<path d="M7905 3558 c-12 -37 -47 -192 -75 -332 -17 -87 -33 -163 -36 -168 -3
-4 4 -8 14 -8 17 0 21 9 27 63 10 88 51 278 79 367 13 41 22 78 19 82 -7 12
-23 9 -28 -4z"/>
<path d="M5540 3550 c0 -5 7 -7 15 -4 8 4 15 8 15 10 0 2 -7 4 -15 4 -8 0 -15
-4 -15 -10z"/>
<path d="M5616 3535 c4 -8 11 -15 16 -15 6 0 5 6 -2 15 -7 8 -14 15 -16 15 -2
0 -1 -7 2 -15z"/>
<path d="M3329 3499 c-23 -19 -23 -20 -2 -10 12 6 25 16 28 21 10 16 -1 12
-26 -11z"/>
<path d="M3252 3480 c0 -19 2 -27 5 -17 2 9 2 25 0 35 -3 9 -5 1 -5 -18z"/>
<path d="M4516 3479 c-14 -11 -26 -24 -26 -29 0 -5 11 2 25 15 13 14 34 25 45
25 12 0 32 -11 45 -25 14 -13 25 -20 25 -15 0 19 -40 50 -64 50 -13 0 -35 -9
-50 -21z"/>
<path d="M4815 3477 c-8 -13 -17 -39 -20 -58 l-5 -34 11 35 c15 49 37 70 73
70 52 0 76 -24 77 -78 1 -42 2 -44 9 -19 10 34 -5 84 -30 97 -10 6 -37 10 -59
10 -31 0 -44 -5 -56 -23z"/>
<path d="M3344 3452 c-6 -4 -7 -17 -3 -32 4 -14 8 -18 9 -10 1 8 3 23 5 33 4
19 4 19 -11 9z"/>
<path d="M4356 3421 l7 -42 -36 6 c-38 7 -77 -1 -77 -16 0 -5 19 -9 43 -9 24
0 52 -6 63 -14 21 -16 24 -14 -53 -35 -26 -7 -43 -18 -43 -26 0 -18 5 -18 55
0 53 19 63 18 68 -2 2 -10 7 8 11 40 9 60 -2 105 -30 128 -13 10 -14 6 -8 -30z"/>
<path d="M4631 3414 c0 -11 3 -14 6 -6 3 7 2 16 -1 19 -3 4 -6 -2 -5 -13z"/>
<path d="M3960 3416 c0 -17 53 -126 61 -126 13 0 12 5 -26 72 -19 35 -35 59
-35 54z"/>
<path d="M2026 3385 c-9 -14 -12 -25 -7 -25 12 0 35 39 28 46 -2 3 -12 -7 -21
-21z"/>
<path d="M4576 3364 c-15 -39 7 -76 35 -58 14 8 11 31 -6 38 -8 3 -12 12 -9
21 3 8 2 15 -4 15 -5 0 -13 -7 -16 -16z"/>
<path d="M4808 3358 c-6 -34 2 -58 18 -58 20 0 30 30 14 40 -7 4 -10 15 -7 24
4 10 1 16 -7 16 -8 0 -15 -10 -18 -22z"/>
<path d="M1021 3345 c-57 -14 -74 -29 -110 -100 -11 -22 -43 -59 -70 -82 -32
-28 -55 -58 -67 -88 -12 -33 -21 -44 -32 -40 -19 7 -105 -48 -120 -77 -6 -13
-16 -36 -22 -51 -10 -28 -10 -28 23 6 30 32 98 59 113 45 2 -3 -5 -26 -16 -52
-24 -57 -27 -154 -5 -196 19 -37 79 -73 120 -72 26 1 34 -3 39 -21 3 -12 12
-31 21 -42 10 -14 9 -6 -5 28 -34 83 -20 106 25 40 14 -21 25 -32 25 -26 0 18
-50 73 -66 73 -8 0 -14 -9 -14 -20 0 -11 -4 -20 -8 -20 -17 0 -82 82 -82 104
0 3 15 -11 34 -32 19 -20 37 -34 40 -31 4 3 1 29 -6 57 -13 58 -9 69 20 53 12
-6 51 -11 87 -11 52 0 82 7 134 30 95 41 130 29 156 -54 10 -34 30 1 30 54 0
47 1 48 19 32 28 -26 44 -64 66 -156 11 -47 34 -111 51 -141 24 -43 30 -64 26
-89 l-5 -33 39 10 c29 7 43 7 52 -2 8 -8 2 -11 -24 -11 -25 0 -30 -3 -19 -10
8 -5 25 -10 38 -10 12 0 39 -16 60 -35 l37 -35 -43 15 c-24 8 -66 27 -94 42
-47 26 -51 26 -106 14 -31 -7 -75 -17 -97 -21 -22 -5 -83 -9 -136 -10 -89 0
-97 -2 -117 -25 -12 -14 -25 -26 -29 -26 -5 -1 -17 -3 -28 -4 -11 -1 -47 -17
-80 -35 -51 -27 -54 -30 -25 -24 19 4 68 8 109 8 l73 1 19 38 c11 20 24 37 29
37 5 0 22 -13 37 -29 27 -29 30 -29 81 -20 30 6 75 23 100 38 68 42 113 54
147 41 l28 -11 -35 -37 c-49 -51 -61 -77 -48 -101 5 -11 10 -51 10 -90 l0 -71
-117 6 c-95 4 -129 2 -173 -11 -65 -20 -90 -22 -188 -11 l-73 9 6 -44 c6 -43
6 -43 -9 -19 -14 22 -61 130 -85 191 -10 27 -9 45 2 42 26 -9 -21 66 -81 130
-53 55 -157 125 -169 114 -3 -3 0 -21 7 -39 30 -81 60 -171 60 -180 0 -5 -8
-7 -17 -4 -71 19 -83 18 -113 -12 -27 -28 -30 -37 -30 -95 0 -57 4 -70 27 -98
54 -63 149 -86 209 -50 l32 19 36 -25 c37 -27 39 -43 4 -43 -32 0 -93 -71
-188 -217 -84 -131 -85 -132 -133 -142 -116 -26 -168 -83 -183 -199 -2 -13
-10 -35 -20 -50 -16 -24 -16 -26 2 -39 11 -8 30 -16 44 -19 80 -16 113 -30
149 -60 54 -47 100 -64 169 -64 49 0 68 6 118 35 32 19 75 53 95 75 21 23 46
40 58 40 25 0 36 17 106 158 l50 101 46 1 c31 0 55 7 78 24 18 13 74 43 124
66 l92 42 25 66 c25 65 25 65 77 78 164 42 200 109 144 271 -17 50 -31 95 -31
102 0 7 19 11 49 11 40 0 53 4 65 22 20 29 20 97 1 125 -15 21 -14 23 12 37
16 7 36 23 46 34 18 20 18 20 -55 6 -40 -8 -76 -14 -81 -14 -4 0 -4 -12 -1
-26 5 -19 4 -25 -5 -20 -6 4 -11 13 -11 20 0 19 -52 64 -83 71 -15 4 -26 9
-23 12 2 2 22 -1 45 -8 31 -9 44 -9 55 0 8 7 25 9 41 5 21 -5 27 -4 23 7 -12
35 -92 46 -166 23 -15 -5 -15 -4 2 10 10 8 23 17 29 19 5 1 -2 20 -16 40 -34
50 -57 156 -57 265 0 118 19 177 76 241 l46 51 -22 34 c-34 55 -110 116 -110
88 0 -5 -37 -41 -82 -82 l-83 -73 73 75 74 75 -32 7 c-18 3 -72 6 -120 6 l-87
0 -12 40 c-13 46 -25 48 -120 25z m-344 -1268 c1 -29 0 -45 -3 -37 -3 8 -22
29 -42 47 l-36 32 18 37 18 38 20 -33 c12 -19 23 -55 25 -84z"/>
<path d="M4073 3295 c-82 -47 -103 -75 -103 -137 0 -62 44 -150 101 -203 45
-41 48 -51 17 -61 -28 -9 -209 -8 -238 1 -11 4 -20 2 -20 -4 0 -7 26 -11 65
-11 61 0 64 -1 53 -19 -11 -18 -118 -56 -118 -42 0 4 -7 16 -15 27 -13 15 -12
12 1 -16 9 -19 26 -57 36 -85 17 -44 18 -46 14 -15 l-5 35 14 -30 c8 -16 14
-44 15 -61 0 -41 11 -48 97 -63 110 -19 181 11 122 53 -25 17 -19 46 9 46 10
0 27 7 38 15 12 9 42 14 79 15 60 0 61 0 73 34 25 69 80 80 167 32 49 -27 58
-25 90 22 l25 37 0 -62 c0 -68 -16 -86 -46 -52 -9 10 -26 19 -36 19 -16 0 -17
-3 -8 -21 17 -32 6 -33 -37 -5 -21 14 -53 28 -71 32 l-32 7 0 -53 c0 -48 -1
-51 -17 -39 -13 11 -17 11 -21 1 -3 -10 -7 -10 -18 -1 -25 21 -16 -20 11 -46
l24 -25 -30 0 c-69 0 -149 -71 -113 -100 11 -10 32 -10 89 -1 42 6 139 11 215
11 128 0 140 -2 140 -18 0 -37 20 -42 153 -42 98 0 128 3 125 13 -3 6 -24 14
-49 17 -24 3 -81 20 -126 38 -45 18 -94 32 -108 32 -16 0 -36 12 -55 33 -32
34 -37 52 -18 63 6 4 8 3 5 -3 -4 -6 10 -15 33 -21 37 -9 39 -8 48 17 5 14 30
49 56 78 43 47 48 59 61 135 22 126 46 218 57 218 6 0 8 -18 6 -40 -3 -31 0
-39 10 -35 7 2 25 -7 39 -21 21 -21 24 -32 20 -60 l-6 -34 37 25 37 25 5 -27
c7 -38 38 -41 89 -9 53 34 74 66 65 101 -5 22 -11 26 -31 20 -21 -5 -23 -4
-14 14 17 32 13 68 -12 97 l-23 26 -113 -17 c-130 -20 -293 -16 -376 9 -27 9
-53 12 -58 7 -18 -18 -20 -81 -3 -106 17 -25 17 -26 -19 -41 -33 -13 -38 -13
-63 4 -15 10 -48 29 -74 42 -43 21 -46 24 -35 47 9 19 7 29 -12 53 -12 17 -30
50 -40 74 -21 48 -63 86 -95 86 -11 0 -49 -16 -83 -35z m604 -227 c-4 -18 -12
-108 -19 -200 -9 -126 -15 -168 -25 -168 -9 0 -13 14 -13 43 0 55 28 320 36
341 11 29 26 17 21 -16z m-375 -58 c7 -14 27 -51 45 -82 37 -64 38 -65 20 -65
-7 0 -24 -3 -37 -6 -28 -7 -25 -10 -87 92 -40 67 -45 118 -10 123 23 4 45 -16
69 -62z m-442 -235 c0 -5 -5 -3 -10 5 -5 8 -10 20 -10 25 0 6 5 3 10 -5 5 -8
10 -19 10 -25z"/>
<path d="M3328 3303 c7 -3 16 -2 19 1 4 3 -2 6 -13 5 -11 0 -14 -3 -6 -6z"/>
<path d="M2004 3276 c-8 -21 14 -56 31 -50 16 6 19 22 9 48 -8 20 -33 21 -40
2z"/>
<path d="M4673 3283 c-7 -2 -13 -13 -13 -24 0 -14 7 -19 29 -19 35 0 48 25 21
40 -10 5 -20 10 -22 9 -2 0 -9 -3 -15 -6z"/>
<path d="M3222 3235 c0 -16 2 -22 5 -12 2 9 2 23 0 30 -3 6 -5 -1 -5 -18z"/>
<path d="M3271 3234 c0 -11 3 -14 6 -6 3 7 2 16 -1 19 -3 4 -6 -2 -5 -13z"/>
<path d="M4630 3190 c11 -21 42 -25 114 -12 l40 7 -27 12 c-16 8 -27 9 -27 3
0 -13 -77 -13 -85 0 -12 20 -26 10 -15 -10z"/>
<path d="M5265 3174 c-16 -8 -22 -12 -12 -9 10 3 30 5 43 5 13 0 24 5 24 10 0
14 -19 12 -55 -6z"/>
<path d="M7525 3079 c-16 -5 -60 -7 -97 -3 -54 5 -68 3 -68 -7 0 -35 34 -119
66 -166 35 -51 43 -88 30 -131 -5 -16 -3 -22 7 -22 16 0 35 40 39 85 4 41 37
41 57 0 12 -26 12 -35 -1 -73 -15 -42 -15 -45 9 -88 31 -55 58 -58 90 -11 54
80 60 171 18 296 -15 45 -25 93 -22 107 4 23 2 24 -47 23 -28 0 -64 -5 -81
-10z m-56 -39 c18 0 21 -6 21 -39 0 -52 -17 -61 -47 -27 -15 18 -23 39 -23 64
1 33 2 35 14 20 7 -10 23 -18 35 -18z"/>
<path d="M1850 3070 c-9 -6 -10 -10 -3 -10 6 0 15 5 18 10 8 12 4 12 -15 0z"/>
<path d="M3887 3043 c-4 -3 -7 -11 -7 -17 0 -6 5 -5 12 2 6 6 9 14 7 17 -3 3
-9 2 -12 -2z"/>
<path d="M3379 3019 c26 -27 55 -79 48 -85 -2 -3 -16 0 -31 6 -64 24 -114 2
-102 -45 l7 -28 19 31 c14 23 27 32 45 32 40 0 85 -27 86 -53 1 -17 2 -18 6
-4 4 15 7 16 21 5 9 -7 6 1 -6 17 -13 17 -38 54 -55 84 -18 30 -38 57 -46 59
-8 3 -4 -6 8 -19z"/>
<path d="M3836 3016 c3 -9 11 -16 16 -16 13 0 5 23 -10 28 -7 2 -10 -2 -6 -12z"/>
<path d="M8221 3014 c0 -11 3 -14 6 -6 3 7 2 16 -1 19 -3 4 -6 -2 -5 -13z"/>
<path d="M3914 3005 c-10 -8 -14 -15 -8 -15 5 0 19 7 30 15 10 8 14 15 8 15
-5 0 -19 -7 -30 -15z"/>
<path d="M3123 2940 c6 -22 14 -40 18 -40 3 0 1 18 -4 40 -6 22 -14 40 -18 40
-3 0 -1 -18 4 -40z"/>
<path d="M4810 2948 c0 -16 5 -28 10 -28 19 0 10 -28 -10 -33 -14 -3 -20 -14
-20 -31 0 -14 2 -26 4 -26 2 0 20 13 40 29 23 18 32 31 24 34 -11 3 -10 9 0
26 18 31 8 56 -23 56 -21 0 -25 -5 -25 -27z"/>
<path d="M8181 2971 c-8 -5 -9 -11 -3 -15 5 -3 12 1 16 9 6 17 6 18 -13 6z"/>
<path d="M3862 2950 c0 -14 2 -19 5 -12 2 6 2 18 0 25 -3 6 -5 1 -5 -13z"/>
<path d="M8135 2950 c4 -6 11 -8 16 -5 14 9 11 15 -7 15 -8 0 -12 -5 -9 -10z"/>
<path d="M8230 2940 c-9 -6 -10 -10 -3 -10 6 0 15 5 18 10 8 12 4 12 -15 0z"/>
<path d="M8106 2885 c-9 -26 -7 -32 5 -12 6 10 9 21 6 23 -2 3 -7 -2 -11 -11z"/>
<path d="M8170 2871 c0 -6 5 -13 11 -17 8 -4 7 -9 -2 -15 -8 -5 -9 -9 -4 -9
24 0 30 16 13 33 -10 9 -18 13 -18 8z"/>
<path d="M4839 2835 c-32 -17 -44 -44 -25 -51 23 -9 76 24 76 46 0 23 -15 25
-51 5z"/>
<path d="M8190 2815 c-19 -7 -76 -28 -127 -47 l-91 -33 -26 24 -26 24 -27 -24
c-50 -44 -51 -48 -31 -87 28 -56 22 -102 -9 -71 -7 7 -13 7 -17 1 -3 -6 -2
-13 4 -17 5 -3 10 -13 10 -21 0 -9 -5 -12 -12 -8 -8 5 -9 2 -4 -12 5 -10 11
-49 13 -85 4 -53 1 -75 -16 -114 -11 -26 -21 -49 -21 -51 0 -8 102 -3 152 7
122 26 208 106 208 196 0 32 4 43 16 43 8 0 29 13 45 29 23 24 29 38 29 75 0
24 -4 56 -9 69 -8 20 -6 29 10 43 24 22 24 50 0 64 -24 13 -28 12 -71 -5z
m-276 -251 c16 -6 23 -34 9 -34 -28 1 -51 14 -46 26 6 15 13 17 37 8z"/>
<path d="M8070 2800 c0 -5 5 -10 11 -10 5 0 7 5 4 10 -3 6 -8 10 -11 10 -2 0
-4 -4 -4 -10z"/>
<path d="M1090 2710 c-11 -11 -20 -24 -20 -30 0 -5 11 2 25 16 35 35 73 29
102 -15 13 -19 24 -50 24 -70 1 -26 3 -29 6 -12 7 37 -5 85 -28 109 -26 29
-82 29 -109 2z"/>
<path d="M2951 2690 c6 -14 18 -33 27 -42 8 -10 12 -27 9 -39 -5 -20 -4 -20
12 -4 18 15 17 17 -8 43 -14 15 -32 37 -39 47 -11 17 -11 16 -1 -5z"/>
<path d="M4848 2626 l-67 -32 70 -18 c39 -10 72 -16 73 -14 1 1 7 24 13 51 13
58 7 59 -89 13z"/>
<path d="M2730 2581 c5 -11 15 -23 21 -27 6 -3 3 5 -6 20 -20 30 -30 35 -15 7z"/>
<path d="M2944 2569 c-10 -12 -41 -40 -69 -62 l-49 -39 -34 38 c-37 42 -34 29
5 -23 l24 -32 -40 -58 c-21 -32 -46 -73 -55 -90 -20 -40 -34 -41 -69 -5 -37
39 -57 93 -58 159 l0 58 -15 -39 c-8 -21 -10 -44 -6 -50 5 -6 15 -30 22 -54 8
-24 31 -63 52 -87 l38 -43 -17 -31 c-10 -17 -23 -31 -29 -31 -6 0 -15 -39 -20
-95 -5 -52 -8 -95 -6 -95 2 0 15 9 29 20 25 19 25 19 66 -2 23 -11 56 -31 73
-44 37 -29 124 -68 131 -60 4 3 1 6 -5 6 -16 0 -72 50 -103 94 -34 46 -37 95
-12 177 10 32 17 89 17 140 1 96 7 107 110 217 27 28 47 52 44 52 -3 0 -13
-10 -24 -21z"/>
<path d="M920 2562 c0 -19 18 -42 32 -42 15 0 8 26 -12 43 -19 16 -20 16 -20
-1z"/>
<path d="M1096 2558 c-8 -18 9 -58 24 -58 15 0 23 21 11 33 -8 8 -11 7 -12 -3
-1 -8 -5 -1 -9 15 -5 24 -8 26 -14 13z"/>
<path d="M820 2520 c0 -5 11 -10 25 -10 14 0 25 5 25 10 0 6 -11 10 -25 10
-14 0 -25 -4 -25 -10z"/>
<path d="M985 2511 c-9 -16 3 -31 26 -31 14 0 19 6 17 17 -4 20 -33 29 -43 14z"/>
<path d="M2107 2503 c-31 -8 -12 -28 29 -31 44 -3 94 12 94 28 0 10 -87 12
-123 3z"/>
<path d="M839 2464 c-12 -14 -11 -16 5 -13 11 2 21 10 24 17 5 17 -13 15 -29
-4z"/>
<path d="M959 2448 c19 -22 33 -28 60 -26 l36 1 -35 4 c-19 3 -46 14 -60 26
l-25 22 24 -27z"/>
<path d="M1801 2451 c-14 -4 -26 -12 -29 -20 -3 -10 7 -11 44 -6 78 10 95 15
89 25 -7 11 -67 12 -104 1z"/>
<path d="M3950 2437 c3 -2 110 -37 239 -76 128 -40 241 -75 250 -78 34 -10
-127 81 -182 104 -31 13 -90 27 -130 32 -139 18 -182 22 -177 18z"/>
<path d="M3605 2416 c-32 -14 -61 -43 -53 -52 3 -3 23 7 44 21 50 34 88 31 92
-8 2 -16 -1 -43 -8 -60 -7 -22 -7 -28 0 -21 14 14 40 113 32 118 -21 13 -81
14 -107 2z"/>
<path d="M2545 2340 c-4 -28 -5 -53 -2 -56 2 -3 7 19 11 47 4 28 5 53 3 56 -3
2 -8 -19 -12 -47z"/>
<path d="M1973 2358 c-37 -18 -29 -38 9 -27 18 5 52 9 76 9 31 0 42 4 40 13
-6 16 -96 20 -125 5z"/>
<path d="M3195 2354 c-21 -8 -48 -23 -60 -33 -11 -11 -29 -21 -40 -24 -16 -4
-17 -5 -2 -6 9 0 17 -9 17 -18 1 -10 7 -31 15 -48 13 -30 13 -30 8 15 -5 45
-4 46 38 74 49 33 113 44 160 27 45 -16 50 -5 6 14 -45 18 -89 18 -142 -1z"/>
<path d="M3556 2328 c-31 -48 -20 -168 16 -168 6 0 5 7 -3 16 -10 13 -10 17 2
25 8 5 21 9 29 10 10 0 11 2 3 6 -7 2 -13 18 -13 34 0 20 -4 28 -11 23 -20
-12 -29 19 -13 44 9 13 13 26 11 29 -3 2 -12 -6 -21 -19z"/>
<path d="M2447 2321 c-3 -12 1 -22 9 -25 16 -6 18 12 5 32 -6 11 -9 9 -14 -7z"/>
<path d="M3300 2274 c-6 -14 -10 -45 -10 -70 0 -41 -2 -44 -27 -44 -16 -1 -39
-8 -53 -16 -17 -10 -18 -13 -5 -8 11 3 41 9 67 11 53 6 63 14 72 59 6 27 4 32
-15 37 -21 6 -21 7 -5 31 14 23 15 26 1 26 -9 0 -20 -12 -25 -26z"/>
<path d="M2180 2240 c-32 -32 -49 -39 -176 -69 -146 -35 -189 -35 -197 -3 -3
11 -5 8 -6 -9 0 -14 7 -33 17 -41 25 -23 151 -78 176 -78 21 0 22 -4 18 -64
-8 -130 55 -259 162 -328 48 -31 62 -36 64 -24 2 9 15 19 29 22 37 10 141 -2
166 -19 29 -18 55 -7 84 37 13 21 36 39 57 46 34 11 36 14 36 53 0 23 -4 49
-10 57 -7 11 -11 9 -19 -13 -6 -16 -11 -32 -11 -36 0 -15 -77 -79 -109 -90
-52 -17 -127 -13 -170 9 -84 42 -115 113 -109 243 3 76 4 80 40 113 l37 34
-38 30 c-36 29 -38 33 -31 70 4 22 13 46 19 54 7 8 11 21 9 28 -2 8 -16 0 -38
-22z m-34 -427 c58 -64 81 -153 38 -153 -27 0 -91 72 -104 117 -24 79 10 97
66 36z"/>
<path d="M3423 2178 c-52 -25 -7 -57 62 -44 40 8 51 21 35 41 -14 17 -65 19
-97 3z"/>
<path d="M3327 2144 c-15 -13 -24 -24 -19 -24 14 0 58 37 52 43 -3 3 -18 -6
-33 -19z"/>
<path d="M3565 2086 c-31 -47 -78 -66 -166 -66 -42 0 -90 5 -107 11 -23 8 -36
7 -54 -2 -13 -7 -18 -14 -11 -16 7 -3 20 0 28 5 11 5 36 4 68 -5 62 -17 163
-11 207 12 16 8 37 28 47 43 9 15 23 32 31 39 12 10 11 12 -5 11 -10 -1 -27
-16 -38 -32z"/>
<path d="M2323 1991 c-26 -22 -31 -84 -12 -171 12 -58 26 -63 77 -24 41 32 62
78 62 137 0 52 -10 62 -65 71 -31 5 -45 2 -62 -13z"/>
<path d="M3017 1849 c29 -30 37 -34 81 -33 28 1 54 4 59 7 6 4 27 -2 47 -12
46 -24 74 -17 92 23 8 18 13 24 14 14 0 -22 50 -26 50 -4 0 25 -27 37 -72 32
-64 -9 -260 -8 -283 0 -15 5 -12 -2 12 -27z"/>
<path d="M4554 1835 c11 -8 26 -15 33 -15 22 0 14 8 -19 19 -30 10 -31 9 -14
-4z"/>
<path d="M2609 1697 c-77 -36 -174 -130 -209 -203 -32 -64 -35 -190 -6 -244
69 -128 183 -193 298 -169 59 13 134 60 156 99 14 24 24 30 52 30 19 1 51 7
72 14 36 13 36 13 26 -10 -13 -27 -64 -54 -105 -54 -17 0 -37 -8 -46 -18 -19
-20 -47 -95 -47 -123 0 -11 -9 -28 -20 -39 -11 -11 -23 -33 -26 -48 -5 -19
-24 -38 -66 -65 -78 -52 -118 -118 -118 -199 0 -46 5 -62 26 -88 51 -60 116
-77 217 -55 126 26 218 94 267 197 l27 58 7 -39 c8 -52 45 -94 109 -125 136
-65 393 -75 412 -16 3 11 0 34 -8 52 -8 18 -20 60 -26 93 -14 73 -55 120 -142
161 -46 22 -59 33 -59 51 0 12 -9 47 -20 77 -19 50 -20 63 -10 156 5 56 10
127 10 156 0 52 -1 54 -20 44 -11 -6 -20 -17 -20 -24 0 -18 -52 -36 -101 -36
-28 0 -39 4 -39 15 0 12 -15 15 -74 15 -41 0 -77 3 -79 8 -3 4 -2 28 3 55 8
54 3 57 -55 27 -57 -29 -166 -28 -225 3 -46 23 -50 29 -69 88 -9 31 -8 43 9
82 22 50 19 69 -14 90 -21 14 -28 12 -87 -16z"/>
<path d="M2945 1650 c-26 -28 -7 -48 32 -34 38 13 45 54 10 54 -13 0 -32 -9
-42 -20z"/>
<path d="M3300 1663 c0 -4 5 -15 10 -23 8 -13 10 -13 10 2 0 9 -4 20 -10 23
-5 3 -10 3 -10 -2z"/>
<path d="M4862 1618 c-7 -7 -12 -18 -12 -26 0 -22 20 -53 31 -46 6 4 6 11 -2
20 -6 7 -9 20 -6 28 5 12 11 12 31 3 28 -13 33 -36 14 -55 -15 -15 -4 -26 17
-19 25 10 19 63 -11 86 -30 24 -45 26 -62 9z"/>
<path d="M4746 1567 c3 -10 9 -15 12 -12 3 3 0 11 -7 18 -10 9 -11 8 -5 -6z"/>
<path d="M4795 1501 c2 -9 4 -20 4 -26 2 -13 21 16 21 31 0 6 -6 11 -14 11 -7
0 -12 -7 -11 -16z"/>
<path d="M4835 1511 c-2 -5 4 -11 15 -14 11 -3 20 -2 20 3 0 12 -28 21 -35 11z"/>
<path d="M3257 1483 c-13 -12 -7 -60 8 -73 8 -7 22 -10 30 -6 37 14 30 86 -9
86 -12 0 -26 -3 -29 -7z"/>
<path d="M4830 1476 c0 -9 30 -14 35 -6 4 6 -3 10 -14 10 -12 0 -21 -2 -21 -4z"/>
<path d="M1785 1454 c-26 -10 -54 -13 -80 -9 -67 11 -126 10 -133 -2 -4 -6
-24 -18 -44 -26 -49 -21 -95 -86 -103 -145 -8 -65 -13 -72 -75 -95 -72 -26
-108 -53 -116 -84 -9 -32 10 -48 69 -57 l42 -7 -31 -13 c-30 -13 -74 -59 -74
-78 0 -4 12 -5 26 -2 18 5 25 3 20 -4 -3 -6 3 -14 15 -17 12 -4 47 -33 78 -64
115 -117 240 -141 441 -86 30 8 69 15 85 15 45 0 173 38 225 66 49 27 210 175
229 211 15 30 13 123 -4 153 -8 14 -14 36 -15 49 0 39 -75 104 -161 139 -123
51 -330 80 -394 56z m135 -35 c0 -5 -10 -9 -22 -10 -13 0 -18 -3 -11 -5 7 -3
9 -13 6 -22 -4 -11 4 -7 24 11 16 15 33 27 37 27 12 0 2 -63 -11 -67 -7 -3
-10 4 -6 19 4 20 3 21 -9 7 -14 -17 -74 -23 -83 -8 -4 5 2 9 12 9 14 0 15 2 4
9 -7 5 -22 6 -33 3 -15 -4 -17 -7 -6 -13 9 -6 7 -9 -9 -9 -27 0 -28 8 -8 37
12 18 25 22 65 21 28 0 50 -4 50 -9z m-469 -409 c19 -6 46 -21 59 -35 27 -28
40 -32 40 -11 0 26 18 27 44 1 36 -35 106 -34 221 5 49 17 91 30 93 30 13 0
-63 -53 -99 -69 l-42 -19 39 -10 c21 -6 48 -12 59 -15 17 -3 16 -6 -10 -16
-16 -7 -52 -18 -80 -26 l-50 -13 60 -6 c136 -15 152 -18 125 -27 -14 -4 -59
-5 -100 -2 -41 2 -88 0 -105 -6 -27 -8 -24 -9 30 -11 l60 -2 -45 -10 c-70 -14
-198 -5 -252 19 -59 27 -180 137 -166 151 7 7 -1 13 -26 17 -31 6 -35 9 -24
23 31 37 102 51 169 32z"/>
<path d="M1830 1416 c0 -9 30 -14 35 -6 4 6 -3 10 -14 10 -12 0 -21 -2 -21 -4z"/>
<path d="M5306 1401 c4 -16 2 -21 -5 -17 -7 5 -8 1 -4 -11 6 -16 5 -16 -10 -4
-9 7 -17 10 -17 5 0 -4 -7 1 -16 12 -8 10 -13 13 -9 7 4 -8 0 -13 -10 -13 -9
0 -14 -4 -11 -9 3 -4 17 -7 31 -6 14 2 27 -1 31 -6 9 -15 24 -10 24 9 0 15 2
15 11 2 9 -12 10 -12 5 4 -5 14 -2 17 9 12 9 -3 13 -2 10 4 -3 6 -12 10 -20
10 -7 0 -16 6 -19 13 -3 6 -3 1 0 -12z"/>
<path d="M7115 1380 c-71 -49 -150 -64 -198 -38 -19 10 -20 9 -9 -4 7 -9 28
-19 46 -22 19 -4 45 -15 59 -26 14 -11 40 -20 58 -20 45 0 25 -18 -26 -23 -37
-3 -36 -4 10 -5 91 -2 187 55 169 101 -5 14 -62 57 -75 57 -2 0 -17 -9 -34
-20z"/>
<path d="M6710 1357 c0 -27 65 -77 120 -92 14 -3 2 7 -26 24 -29 17 -61 42
-73 57 -14 18 -21 22 -21 11z"/>
<path d="M5370 775 c-19 -14 -40 -25 -47 -25 -15 0 -17 -16 -3 -25 6 -3 17
-20 26 -36 15 -30 15 -30 -5 -19 -14 7 -21 7 -21 0 0 -5 -15 -10 -32 -10 -18
0 -53 -10 -78 -22 -28 -14 -65 -22 -100 -22 -54 -1 -55 -2 -58 -31 -1 -17 8
-47 21 -70 44 -78 133 -114 299 -122 137 -7 156 -2 160 39 3 33 28 53 28 22 0
-44 42 -105 94 -134 91 -53 241 -74 329 -48 49 15 107 68 107 97 0 33 -19 63
-36 57 -9 -3 -17 2 -21 12 -19 58 -53 112 -103 164 l-57 59 -49 -19 c-27 -11
-75 -25 -107 -33 -53 -11 -62 -11 -92 5 -19 10 -36 25 -40 34 -5 12 5 14 65 8
83 -9 167 6 204 35 38 30 31 39 -13 17 -123 -61 -303 -34 -392 59 -18 18 -35
33 -38 33 -4 -1 -22 -12 -41 -25z"/>
</g>
</svg>
