<?xml version="1.0" standalone="no"?>
<!DOCTYPE svg PUBLIC "-//W3C//DTD SVG 20010904//EN"
 "http://www.w3.org/TR/2001/REC-SVG-20010904/DTD/svg10.dtd">
<svg version="1.0" xmlns="http://www.w3.org/2000/svg"
 width="896.000000pt" height="896.000000pt" viewBox="0 0 896.000000 896.000000"
 preserveAspectRatio="xMidYMid meet">

<g transform="translate(0.000000,896.000000) scale(0.100000,-0.100000)"
fill="#000000" stroke="none">
<path d="M5729 7962 c-145 -95 -258 -230 -347 -417 -24 -49 -48 -98 -53 -107
-5 -10 -9 -27 -9 -37 0 -11 -4 -23 -10 -26 -5 -3 -10 -17 -10 -30 0 -13 -5
-25 -11 -27 -6 -2 -77 30 -158 70 -80 41 -148 74 -151 74 -3 0 -18 5 -35 13
-33 14 -127 50 -135 50 -6 1 -114 33 -150 45 -14 5 -47 12 -75 15 -27 3 -70 9
-95 12 -120 16 -359 1 -425 -27 -131 -54 -139 -58 -218 -108 -76 -49 -77 -49
-212 -18 -38 9 -90 19 -115 22 -25 3 -61 9 -80 14 -19 5 -94 14 -166 21 -105
9 -146 9 -204 -2 -102 -18 -105 -24 -105 -209 0 -80 3 -161 7 -180 3 -19 10
-59 14 -88 4 -29 11 -55 15 -58 5 -3 9 -20 9 -39 0 -19 5 -37 10 -40 6 -3 10
-19 10 -34 0 -15 7 -36 15 -47 23 -30 18 -73 -12 -109 -57 -67 -128 -160 -158
-204 l-30 -46 1 -402 c0 -222 3 -405 6 -409 4 -3 25 15 48 40 84 90 298 220
495 299 187 75 351 117 600 154 150 22 642 25 805 5 551 -68 1038 -208 1510
-433 83 -40 150 -76 150 -80 0 -4 -69 25 -152 65 -911 437 -1930 569 -2694
351 -272 -78 -545 -218 -685 -352 -67 -63 -86 -107 -70 -155 6 -17 11 -42 11
-55 0 -13 4 -31 9 -41 8 -14 17 -36 26 -62 9 -26 23 -52 48 -89 29 -42 31 -43
73 -37 40 5 44 4 50 -18 3 -14 2 -32 -3 -41 -12 -21 7 -138 30 -181 9 -17 31
-51 50 -76 35 -46 53 -93 39 -102 -5 -3 -33 -1 -63 5 -111 21 -119 21 -154 5
-26 -13 -35 -23 -35 -41 0 -38 38 -56 132 -62 110 -6 110 -6 97 -40 -12 -33
-28 -44 -52 -37 -37 11 -137 -7 -158 -29 -23 -25 -23 -26 -3 -52 12 -17 25
-20 79 -18 71 2 68 7 31 -65 -36 -68 -30 -93 49 -181 91 -102 369 -221 625
-268 l45 -8 -60 -48 -60 -48 -232 5 c-128 3 -233 3 -233 0 0 -3 7 -19 17 -37
10 -20 18 -66 21 -123 4 -75 1 -105 -18 -165 -40 -136 -115 -233 -215 -280
-59 -29 -125 -38 -125 -19 0 6 15 10 33 10 48 0 129 44 177 96 79 86 138 259
126 374 -14 145 -71 212 -209 250 -27 7 -51 19 -54 26 -3 7 5 27 17 44 87 122
54 303 -63 349 l-35 14 -1 68 c-1 90 -15 147 -62 246 -70 147 -178 238 -324
272 -27 7 -51 14 -53 15 -1 2 -9 64 -17 137 -88 817 -205 1858 -220 1962 l-5
37 39 0 c45 0 71 20 71 55 0 42 -27 47 -187 35 -81 -5 -148 -11 -149 -13 -1
-1 -4 -20 -6 -42 l-3 -40 52 -3 c55 -3 61 -10 61 -67 0 -21 17 -180 33 -305 9
-76 27 -258 34 -340 6 -76 26 -280 36 -365 5 -44 13 -134 18 -200 6 -66 12
-131 15 -145 3 -14 11 -101 17 -195 6 -93 15 -204 21 -245 5 -41 12 -117 14
-168 6 -104 -1 -122 -47 -122 -31 0 -34 6 -44 88 -6 46 -12 56 -43 77 -52 35
-83 32 -160 -19 -133 -87 -261 -254 -287 -371 -34 -159 -31 -273 14 -404 l32
-94 -7 -197 -7 -196 32 -59 c31 -56 31 -60 15 -72 -10 -7 -26 -13 -36 -13 -9
0 -33 -9 -53 -20 -20 -11 -44 -20 -55 -20 -10 0 -21 -4 -24 -9 -3 -5 -18 -12
-33 -15 -40 -10 -83 -30 -83 -38 0 -5 -5 -8 -12 -8 -11 0 -119 -50 -128 -60
-3 -3 -21 -14 -40 -24 -54 -30 -190 -122 -241 -163 -26 -21 -77 -63 -115 -93
-115 -93 -338 -383 -371 -482 -3 -10 -9 -18 -13 -18 -4 0 -11 -12 -15 -27 -3
-15 -15 -45 -26 -67 -10 -22 -19 -46 -19 -53 0 -7 -4 -22 -10 -33 -5 -11 -14
-29 -20 -40 -5 -10 -7 -26 -4 -34 3 -8 1 -17 -5 -21 -6 -3 -11 -15 -11 -26 0
-10 -5 -28 -12 -39 -19 -30 1 -38 25 -9 12 14 51 67 86 118 209 300 402 459
636 523 73 20 104 22 336 23 142 0 252 -3 247 -6 -6 -4 2 -14 19 -22 42 -22
133 -106 133 -123 0 -8 -4 -22 -9 -32 -5 -9 -16 -34 -24 -54 -14 -32 -21 -37
-54 -40 -38 -3 -50 -18 -84 -103 -26 -68 -29 -306 -3 -394 60 -209 294 -502
423 -527 28 -6 30 -4 40 34 l11 40 120 -1 c97 -1 121 -4 127 -16 4 -9 10 -267
13 -574 6 -636 -2 -587 95 -587 42 0 56 5 75 25 l23 25 -6 517 c-4 285 -10
547 -13 583 l-6 65 43 13 c87 27 190 75 275 128 47 30 88 54 90 54 11 0 34
-64 34 -94 0 -19 5 -38 10 -41 6 -3 10 -19 10 -34 0 -27 23 -117 39 -156 36
-83 64 -140 95 -187 66 -104 201 -202 320 -234 68 -18 215 -17 296 2 86 20
233 92 316 155 80 61 88 57 99 -49 3 -37 11 -84 17 -105 10 -33 9 -39 -8 -52
-10 -9 -31 -18 -46 -21 -16 -4 -28 -9 -28 -13 0 -3 -18 -15 -40 -25 -38 -18
-132 -110 -212 -208 -26 -32 -47 -48 -71 -52 -41 -8 -56 -35 -64 -120 -4 -53
-2 -66 19 -96 27 -39 90 -73 182 -97 94 -24 431 -8 681 33 215 35 308 70 346
130 l20 32 52 -55 c60 -64 97 -83 162 -83 37 0 52 5 74 28 27 26 28 30 23 108
-7 128 28 227 115 324 96 107 231 170 364 170 39 0 69 -4 69 -10 0 -5 -18 -10
-41 -10 -168 0 -368 -130 -441 -286 -28 -59 -33 -82 -37 -177 -6 -99 -8 -110
-30 -128 -13 -11 -22 -21 -20 -23 12 -11 180 -57 270 -75 186 -35 335 -44 544
-32 197 11 296 28 323 54 16 17 29 147 19 189 -4 14 -18 30 -32 38 -17 9 -25
22 -25 40 0 38 -53 139 -102 195 -74 84 -219 175 -279 175 -15 0 -31 5 -34 10
-3 6 -22 10 -42 10 -27 0 -42 8 -66 33 -31 33 -331 439 -353 477 -33 59 -119
157 -145 165 -20 7 -92 142 -139 258 l-23 58 57 59 c59 62 86 111 86 156 0 27
-24 53 -48 54 -7 0 -24 12 -36 27 l-24 28 28 35 c40 52 165 243 207 318 37 66
37 66 44 37 5 -17 13 -97 18 -180 6 -82 16 -193 22 -245 6 -52 13 -113 15
-135 10 -94 17 -131 25 -140 5 -5 9 -19 9 -32 0 -13 4 -31 9 -41 5 -9 17 -44
26 -77 50 -172 167 -377 319 -560 273 -327 550 -541 838 -647 78 -28 89 -30
190 -25 97 4 115 8 182 40 302 143 611 467 839 877 84 153 156 389 177 582 11
104 12 681 1 838 l-6 95 -41 -41 c-23 -23 -48 -61 -56 -85 -8 -24 -18 -44 -22
-44 -5 0 -17 23 -27 51 -21 56 -59 97 -103 111 -38 12 -44 29 -12 37 40 10
102 76 116 124 7 23 18 42 24 42 6 0 19 -22 29 -49 17 -48 78 -114 85 -93 7
21 -37 101 -80 148 -28 31 -67 58 -113 79 -110 52 -185 85 -190 85 -2 0 -52
23 -110 50 -58 27 -108 50 -110 50 -2 0 -39 16 -82 35 -43 20 -87 40 -98 45
-11 5 -55 25 -97 44 -43 20 -79 36 -82 36 -2 0 -48 21 -102 47 -92 44 -104 47
-180 48 -74 0 -94 -5 -156 -36 -10 -5 -25 -9 -33 -9 -8 0 -15 -4 -15 -9 0 -5
-15 -12 -32 -16 -18 -4 -38 -9 -44 -10 -6 -2 -29 -11 -50 -20 -69 -30 -94 -40
-134 -50 -3 -1 -18 -7 -35 -14 -31 -13 -203 -71 -211 -71 -3 0 2 13 11 30 8
16 15 38 15 49 0 19 4 20 45 14 43 -5 51 -3 116 42 76 52 159 138 250 258 l59
79 129 1 c111 2 132 5 150 21 12 11 21 28 21 38 0 28 -54 78 -84 78 -30 0
-108 29 -104 39 2 3 14 27 27 52 l24 47 79 4 c64 4 83 9 103 28 53 50 23 117
-62 139 -33 9 -43 17 -43 32 0 39 30 77 111 140 45 35 94 74 110 87 39 32 96
151 115 242 22 99 22 291 0 389 -19 88 -61 184 -103 232 -116 131 -289 13
-349 -237 -24 -100 -22 -287 4 -385 41 -154 115 -255 202 -279 23 -6 40 -14
37 -16 -12 -12 -90 19 -124 49 -91 80 -143 217 -150 403 -11 249 65 446 200
515 20 11 37 23 37 27 0 4 -13 62 -30 129 -32 134 -97 315 -189 531 -34 79
-81 201 -106 270 -135 376 -230 551 -399 729 -83 88 -203 174 -296 212 -70 29
-142 42 -250 47 -68 3 -90 0 -111 -14z m221 -615 c38 -79 54 -179 46 -289 -4
-49 -9 -94 -12 -102 -4 -10 -39 5 -132 55 -144 77 -137 61 -95 194 29 90 63
164 101 214 l25 34 19 -24 c11 -13 32 -50 48 -82z m-1493 -21 c126 -34 214
-104 264 -209 114 -245 -50 -565 -358 -695 -28 -12 -64 -22 -79 -22 l-27 0 9
63 c10 77 10 117 1 137 -6 13 4 18 51 28 133 28 222 136 222 272 0 26 -7 56
-16 69 -13 18 -14 28 -5 47 6 14 11 45 11 69 0 41 -2 45 -24 45 -13 0 -50 -14
-82 -31 -53 -28 -67 -31 -139 -30 -44 1 -104 -5 -134 -13 -49 -13 -57 -12 -95
5 -60 27 -94 25 -106 -7 -6 -14 -10 -43 -10 -64 0 -25 -9 -52 -24 -75 -48 -71
-46 -182 5 -240 28 -32 54 -44 122 -59 27 -6 27 -7 13 -35 -30 -56 -93 -57
-145 -2 -40 42 -61 53 -81 41 -9 -6 -7 -11 9 -19 11 -7 30 -29 40 -49 22 -44
55 -62 111 -62 37 0 40 -2 40 -29 0 -68 -25 -77 -107 -36 -70 35 -141 109
-175 182 -55 117 -47 249 25 393 44 90 168 213 264 263 135 70 300 95 420 63z
m-2317 -132 c0 -8 20 -196 45 -417 67 -592 171 -1634 167 -1674 0 -4 -5 -9
-10 -11 -5 -1 -14 59 -21 135 -38 430 -192 1900 -206 1961 -4 15 -1 22 10 22
8 0 15 -7 15 -16z m1085 -133 l55 -75 -37 -38 c-26 -27 -39 -34 -44 -26 -11
19 -36 126 -44 183 -8 59 -7 58 70 -44z m2224 25 c10 -12 -9 -94 -90 -398 -60
-227 -108 -388 -117 -395 -17 -14 -42 -1 -42 23 0 28 199 756 211 770 15 18
23 18 38 0z m461 -341 c10 -12 -3 -67 -69 -292 -45 -153 -88 -284 -96 -292
-16 -16 -45 -8 -45 13 0 25 161 560 172 573 14 17 23 16 38 -2z m-2694 -48 c2
-7 31 -131 63 -275 48 -220 55 -264 44 -274 -8 -7 -17 -7 -23 -2 -11 11 -127
537 -122 553 5 15 31 14 38 -2z m3154 -292 c9 -11 0 -54 -51 -217 -34 -112
-66 -211 -71 -220 -10 -21 -44 -24 -51 -4 -6 15 119 423 135 444 14 16 23 15
38 -3z m-3383 -231 c23 -109 43 -209 43 -221 0 -23 -14 -31 -24 -14 -11 16
-95 425 -89 434 15 25 31 -19 70 -199z m3958 -31 c12 -4 0 -11 -39 -23 -138
-43 -258 -193 -312 -391 -25 -89 -26 -309 -1 -399 46 -174 154 -321 278 -380
35 -16 73 -30 83 -30 15 0 17 -3 8 -12 -9 -9 -22 -8 -54 1 -140 41 -268 193
-330 391 -20 65 -23 95 -23 225 1 174 13 233 78 364 50 103 136 195 217 234
59 28 69 30 95 20z m-2002 -160 c-7 -2 -19 -2 -25 0 -7 3 -2 5 12 5 14 0 19
-2 13 -5z m70 -10 c-7 -2 -19 -2 -25 0 -7 3 -2 5 12 5 14 0 19 -2 13 -5z m70
-10 c-7 -2 -19 -2 -25 0 -7 3 -2 5 12 5 14 0 19 -2 13 -5z m-1226 -9 c-3 -3
-12 -4 -19 -1 -8 3 -5 6 6 6 11 1 17 -2 13 -5z m1003 1 c0 -6 -137 -75 -147
-75 -6 1 134 77 145 80 1 0 2 -2 2 -5z m287 -1 c-3 -3 -12 -4 -19 -1 -8 3 -5
6 6 6 11 1 17 -2 13 -5z m-1340 -10 c-3 -3 -12 -4 -19 -1 -8 3 -5 6 6 6 11 1
17 -2 13 -5z m90 0 c-3 -3 -12 -4 -19 -1 -8 3 -5 6 6 6 11 1 17 -2 13 -5z
m1310 0 c-3 -3 -12 -4 -19 -1 -8 3 -5 6 6 6 11 1 17 -2 13 -5z m-1440 -10 c-3
-3 -12 -4 -19 -1 -8 3 -5 6 6 6 11 1 17 -2 13 -5z m173 -4 c8 -5 11 -10 5 -10
-5 0 -17 5 -25 10 -8 5 -10 10 -5 10 6 0 17 -5 25 -10z m1327 4 c-3 -3 -12 -4
-19 -1 -8 3 -5 6 6 6 11 1 17 -2 13 -5z m-1540 -10 c-3 -3 -12 -4 -19 -1 -8 3
-5 6 6 6 11 1 17 -2 13 -5z m1590 0 c-3 -3 -12 -4 -19 -1 -8 3 -5 6 6 6 11 1
17 -2 13 -5z m50 -10 c-3 -3 -12 -4 -19 -1 -8 3 -5 6 6 6 11 1 17 -2 13 -5z
m-1717 -14 c-8 -5 -19 -10 -25 -10 -5 0 -3 5 5 10 8 5 20 10 25 10 6 0 3 -5
-5 -10z m370 0 c8 -5 11 -10 5 -10 -5 0 -17 5 -25 10 -8 5 -10 10 -5 10 6 0
17 -5 25 -10z m1397 4 c-3 -3 -12 -4 -19 -1 -8 3 -5 6 6 6 11 1 17 -2 13 -5z
m40 -10 c-3 -3 -12 -4 -19 -1 -8 3 -5 6 6 6 11 1 17 -2 13 -5z m90 -20 c-3 -3
-12 -4 -19 -1 -8 3 -5 6 6 6 11 1 17 -2 13 -5z m-877 -14 c-8 -5 -19 -10 -25
-10 -5 0 -3 5 5 10 8 5 20 10 25 10 6 0 3 -5 -5 -10z m917 4 c-3 -3 -12 -4
-19 -1 -8 3 -5 6 6 6 11 1 17 -2 13 -5z m40 -10 c-3 -3 -12 -4 -19 -1 -8 3 -5
6 6 6 11 1 17 -2 13 -5z m-2137 -19 c-14 -8 -29 -14 -35 -14 -5 0 1 6 15 14
14 8 30 14 35 14 6 0 -1 -6 -15 -14z m700 0 c19 -7 28 -14 20 -14 -8 0 -28 6
-45 14 -39 17 -21 18 25 0z m1547 -11 c-3 -3 -12 -4 -19 -1 -8 3 -5 6 6 6 11
1 17 -2 13 -5z m-2300 -36 c-3 -7 -5 -2 -5 12 0 14 2 19 5 13 2 -7 2 -19 0
-25z m820 26 c-3 -3 -12 -4 -19 -1 -8 3 -5 6 6 6 11 1 17 -2 13 -5z m46 -11
c-7 -2 -19 -2 -25 0 -7 3 -2 5 12 5 14 0 19 -2 13 -5z m180 0 c-7 -2 -21 -2
-30 0 -10 3 -4 5 12 5 17 0 24 -2 18 -5z m1324 1 c-3 -3 -12 -4 -19 -1 -8 3
-5 6 6 6 11 1 17 -2 13 -5z m1322 -30 c40 -51 56 -121 56 -249 0 -125 -10
-174 -46 -219 -66 -84 -142 47 -142 244 0 98 18 185 48 228 21 30 59 28 84 -4z
m-1163 -30 c18 -14 18 -14 -6 -3 -31 14 -36 19 -24 19 6 0 19 -7 30 -16z
m-2539 -96 c-2 -18 -4 -4 -4 32 0 36 2 50 4 33 2 -18 2 -48 0 -65z m1793 78
c0 -2 -8 -10 -17 -17 -16 -13 -17 -12 -4 4 13 16 21 21 21 13z m868 -85 c17
-24 32 -48 32 -54 0 -6 -13 9 -28 34 -16 24 -46 59 -68 78 -35 30 -36 31 -4 9
19 -14 50 -44 68 -67z m-557 62 c13 -16 12 -17 -3 -4 -10 7 -18 15 -18 17 0 8
8 3 21 -13z m-351 -6 c0 -2 -19 -21 -42 -42 l-43 -40 40 43 c36 39 45 47 45
39z m401 -44 c13 -16 12 -17 -3 -4 -10 7 -18 15 -18 17 0 8 8 3 21 -13z m-65
-35 l29 -33 -32 29 c-31 28 -38 36 -30 36 2 0 16 -15 33 -32z m-366 -33 c-24
-25 -46 -45 -49 -45 -3 0 15 20 39 45 24 25 46 45 49 45 3 0 -15 -20 -39 -45z
m280 -6 c28 -6 64 -22 81 -36 29 -25 65 -81 56 -89 -2 -3 -10 9 -17 26 -24 58
-83 88 -205 103 l-30 4 32 2 c18 0 55 -4 83 -10z m-1600 -3 c0 -2 -8 -10 -17
-17 -16 -13 -17 -12 -4 4 13 16 21 21 21 13z m1473 -3 c-7 -2 -21 -2 -30 0
-10 3 -4 5 12 5 17 0 24 -2 18 -5z m-1866 -65 c-2 -13 -4 -3 -4 22 0 25 2 35
4 23 2 -13 2 -33 0 -45z m1760 38 c-32 -13 -64 -30 -72 -36 -9 -7 -18 -10 -22
-7 -7 8 115 67 137 67 8 0 -11 -11 -43 -24z m371 -11 c-3 -3 -9 2 -12 12 -6
14 -5 15 5 6 7 -7 10 -15 7 -18z m-1708 -8 c0 -2 -10 -12 -22 -23 l-23 -19 19
23 c18 21 26 27 26 19z m1045 -17 c66 -7 121 -13 123 -15 2 -2 -3 -17 -12 -33
-20 -39 -36 -112 -25 -112 5 0 9 5 9 11 0 6 12 38 26 70 24 54 30 59 58 59 79
0 472 -77 520 -102 17 -9 18 -19 13 -107 -4 -53 -16 -129 -27 -170 -11 -40
-19 -76 -16 -78 12 -13 71 187 82 280 4 31 8 57 9 57 1 0 41 -15 87 -34 95
-38 203 -100 262 -151 l40 -33 -34 -64 c-18 -34 -45 -81 -60 -103 -71 -105
-86 -167 -50 -212 l19 -25 -90 -109 c-73 -89 -88 -113 -79 -124 7 -8 50 -47
96 -86 47 -40 83 -73 81 -75 -2 -3 -60 -6 -128 -8 -107 -3 -137 -8 -217 -35
-182 -61 -400 -183 -647 -363 l-134 -98 -111 0 c-210 0 -391 30 -584 97 -340
118 -521 289 -582 549 -18 74 -17 78 4 210 13 74 20 138 18 143 -3 4 -15 65
-26 135 -12 70 -35 182 -51 247 -16 66 -29 124 -29 128 0 5 25 11 55 15 31 3
79 16 108 27 28 12 74 30 101 40 l48 20 -6 -28 c-27 -119 -14 -340 25 -419 11
-21 17 -30 13 -19 -33 110 -46 324 -24 404 16 61 37 78 119 96 73 16 74 16 96
-5 35 -33 82 -137 104 -229 22 -91 33 -116 25 -55 -9 67 -45 176 -77 239 -18
33 -33 63 -35 67 -2 4 18 9 45 11 91 9 738 -2 858 -13z m-1458 -77 c-3 -10 -5
-4 -5 12 0 17 2 24 5 18 2 -7 2 -21 0 -30z m2680 -10 c-3 -10 -5 -2 -5 17 0
19 2 27 5 18 2 -10 2 -26 0 -35z m-550 -5 c-3 -8 -6 -5 -6 6 -1 11 2 17 5 13
3 -3 4 -12 1 -19z m540 -60 c-3 -7 -5 -2 -5 12 0 14 2 19 5 13 2 -7 2 -19 0
-25z m-10 -40 c-3 -8 -6 -5 -6 6 -1 11 2 17 5 13 3 -3 4 -12 1 -19z m-2940
-163 c11 -97 9 -113 -7 -71 -12 32 -29 164 -21 171 11 12 19 -15 28 -100z
m2894 28 c-12 -20 -14 -14 -5 12 4 9 9 14 11 11 3 -2 0 -13 -6 -23z m499 -383
c0 -5 -4 -10 -9 -10 -6 0 -13 5 -16 10 -3 6 1 10 9 10 9 0 16 -4 16 -10z m-14
-159 c-9 -16 -22 -31 -30 -34 -11 -4 -10 3 6 29 24 41 45 46 24 5z m-86 -71
c8 -5 12 -11 9 -14 -3 -3 -14 1 -25 9 -21 16 -8 20 16 5z m10 -127 c0 -14 -40
-73 -49 -73 -5 0 0 18 10 40 17 35 39 54 39 33z m-3574 -438 c4 -8 12 -15 20
-15 8 0 23 -9 35 -21 17 -17 20 -29 15 -59 -6 -37 -5 -38 29 -44 24 -5 42 -2
58 9 57 37 138 -43 91 -89 -32 -33 -85 -16 -119 37 -5 8 -24 18 -41 22 -29 5
-31 4 -42 -33 -13 -43 -54 -69 -93 -59 -13 4 -32 -2 -49 -15 -47 -35 -110 -5
-110 52 0 35 32 60 76 60 31 0 55 -19 67 -52 8 -21 50 -24 66 -5 6 8 18 43 28
79 14 55 15 69 4 82 -15 18 -47 21 -56 6 -8 -13 -75 -13 -75 -1 0 5 12 11 28
13 16 2 31 12 37 26 11 26 23 28 31 7z m4569 -329 c226 -97 425 -187 443 -199
18 -12 46 -42 63 -67 55 -83 58 -110 60 -515 1 -381 -2 -433 -42 -588 -78
-306 -374 -713 -656 -900 -140 -94 -181 -110 -262 -105 -145 9 -432 186 -622
385 -246 257 -369 463 -433 725 -32 130 -41 210 -67 590 -19 290 -20 311 -4
365 13 46 28 68 69 108 44 43 70 57 176 97 69 26 265 101 435 168 291 113 314
120 370 117 52 -3 114 -27 470 -181z m-5001 102 c4 -35 13 -166 21 -293 8
-126 17 -256 20 -287 5 -46 3 -57 -8 -53 -10 4 -17 68 -31 268 -9 144 -20 299
-23 345 -7 98 12 116 21 20z m929 -66 c44 -17 64 -46 47 -67 -22 -27 -151 -48
-163 -27 -3 4 -2 33 1 65 l5 57 36 -6 c20 -4 53 -13 74 -22z m4617 -47 c26 -8
25 -18 -2 -30 -13 -6 -30 -26 -40 -45 -14 -31 -17 -33 -23 -15 -11 34 -21 48
-41 59 -10 6 -21 12 -23 13 -2 2 8 12 23 24 15 12 32 33 38 48 l10 26 19 -37
c10 -20 28 -39 39 -43z m-4260 -28 c0 -47 0 -47 -27 -41 -105 26 -117 68 -28
98 48 17 55 10 55 -57z m1216 1 c5 -7 -7 -24 -29 -43 -35 -31 -36 -33 -30 -83
5 -49 4 -53 -30 -87 -27 -27 -43 -35 -72 -35 -20 0 -45 5 -57 11 -17 9 -25 6
-49 -17 -16 -15 -29 -32 -29 -36 0 -5 18 -34 41 -64 39 -53 42 -55 60 -38 13
12 28 15 54 11 31 -5 45 0 95 36 44 31 60 48 60 66 0 55 61 80 100 41 24 -24
25 -48 4 -79 -14 -19 -23 -22 -53 -18 -30 4 -46 -2 -98 -37 -50 -32 -63 -46
-63 -67 0 -34 -31 -62 -65 -57 -25 3 -28 -1 -50 -70 l-23 -73 21 7 c25 7 158
77 262 137 39 22 100 70 138 105 37 36 67 62 67 57 0 -23 -81 -101 -160 -154
-91 -61 -320 -181 -345 -181 -7 0 -60 50 -116 110 l-103 110 -113 0 c-132 0
-123 8 -148 -130 -9 -55 -21 -89 -32 -97 -24 -18 -64 -15 -90 6 -31 26 -29 37
2 17 44 -29 45 -17 8 59 -26 52 -43 75 -55 75 -11 0 -23 12 -29 28 -6 15 -18
39 -26 55 -9 16 -10 27 -4 27 6 0 11 -5 11 -11 0 -8 5 -7 16 1 12 11 18 10 32
-4 16 -16 18 -13 34 56 16 70 16 74 -2 92 -18 19 -20 19 -38 3 -10 -9 -26 -17
-35 -17 -22 0 -55 54 -63 100 -6 38 -8 43 -29 80 -18 31 -11 38 15 15 19 -17
20 -17 38 5 14 17 24 21 41 15 26 -8 60 -75 61 -120 0 -18 11 -40 29 -60 l29
-30 -23 -105 -23 -104 45 -90 c24 -48 48 -85 52 -80 5 5 16 54 26 109 10 55
22 106 27 113 7 8 47 12 132 12 l123 0 92 -100 c51 -55 96 -100 100 -100 7 0
51 138 51 160 0 5 -27 47 -60 92 -33 45 -60 87 -60 94 0 7 18 28 41 47 36 32
39 38 29 57 -27 50 19 132 80 145 16 3 43 0 63 -8 34 -15 35 -15 68 19 36 37
44 40 55 22z m-558 -134 c12 -8 29 -28 37 -44 13 -26 21 -29 67 -32 68 -4 69
-22 1 -26 -45 -3 -52 -6 -57 -28 -10 -39 -51 -74 -85 -74 -32 0 -86 39 -96 70
-4 13 -17 20 -42 22 -49 4 -54 25 -9 34 27 5 38 12 42 30 14 55 94 82 142 48z
m-1761 -180 c-3 -3 -12 -4 -19 -1 -8 3 -5 6 6 6 11 1 17 -2 13 -5z m70 -10
c-3 -3 -12 -4 -19 -1 -8 3 -5 6 6 6 11 1 17 -2 13 -5z m96 -11 c-7 -2 -19 -2
-25 0 -7 3 -2 5 12 5 14 0 19 -2 13 -5z m240 0 c-7 -2 -19 -2 -25 0 -7 3 -2 5
12 5 14 0 19 -2 13 -5z m-666 -40 c-3 -10 -5 -4 -5 12 0 17 2 24 5 18 2 -7 2
-21 0 -30z m786 30 c-7 -2 -21 -2 -30 0 -10 3 -4 5 12 5 17 0 24 -2 18 -5z
m627 3 c0 -2 -6 -9 -13 -15 -10 -8 -14 -7 -14 4 0 8 6 15 14 15 7 0 13 -2 13
-4z m-247 -13 c-46 -2 -120 -2 -165 0 -46 1 -9 3 82 3 91 0 128 -2 83 -3z
m-946 -55 c-3 -7 -5 -2 -5 12 0 14 2 19 5 13 2 -7 2 -19 0 -25z m1363 -55 c7
-27 14 -56 17 -66 7 -27 -111 -79 -169 -75 -39 3 -43 6 -46 32 -2 19 4 36 20
53 27 30 150 113 159 107 3 -2 12 -25 19 -51z m-1743 31 c-3 -3 -12 -4 -19 -1
-8 3 -5 6 6 6 11 1 17 -2 13 -5z m130 0 c-3 -3 -12 -4 -19 -1 -8 3 -5 6 6 6
11 1 17 -2 13 -5z m-357 -77 c0 -2 -10 -12 -22 -23 l-23 -19 19 23 c18 21 26
27 26 19z m634 -47 c10 -13 9 -13 -6 -1 -10 7 -18 21 -17 30 0 13 1 14 6 1 3
-8 11 -22 17 -30z m-694 -14 c0 -2 -8 -10 -17 -17 -16 -13 -17 -12 -4 4 13 16
21 21 21 13z m765 -46 c27 -27 47 -50 44 -50 -3 0 -27 23 -54 50 -27 28 -47
50 -44 50 3 0 27 -22 54 -50z m1734 -31 c74 -15 146 -83 167 -154 25 -88 5
-155 -64 -217 -75 -67 -181 -70 -270 -8 l-44 31 6 -45 c20 -129 22 -187 9
-198 -37 -31 -163 20 -202 82 -12 19 -8 17 16 -8 37 -39 106 -71 151 -72 27 0
32 3 32 25 0 52 -31 246 -45 279 -21 50 -19 129 5 176 24 47 76 91 127 107 49
15 53 15 112 2z m-1328 -36 c42 -27 113 -119 141 -180 50 -112 46 -287 -8
-396 -31 -62 -87 -132 -117 -149 -13 -7 -5 8 22 38 186 209 144 544 -89 706
-39 27 7 10 51 -19z m2021 20 c22 -20 23 -51 1 -75 -18 -20 -53 -24 -69 -8 -6
6 -31 -1 -72 -23 -47 -24 -62 -37 -62 -54 0 -45 -70 -58 -96 -18 -13 21 -15
31 -6 50 13 28 56 43 76 26 19 -16 136 41 136 66 0 23 30 53 53 53 11 0 29 -7
39 -17z m-1012 -27 c0 -2 -8 -10 -17 -17 -16 -13 -17 -12 -4 4 13 16 21 21 21
13z m-556 -16 c41 -15 34 -50 -20 -100 -49 -45 -132 -88 -187 -97 -36 -5 -37
-4 -73 109 -5 12 10 24 59 47 98 47 171 60 221 41z m526 -23 c0 -1 -28 -29
-62 -62 l-63 -60 60 63 c55 58 65 67 65 59z m70 -83 c11 -27 -3 -74 -20 -74
-6 0 -18 16 -26 36 -14 33 -14 38 2 55 19 21 32 17 44 -17z m-1022 -46 c38
-38 -15 -101 -68 -81 -39 15 -102 -23 -70 -42 20 -12 11 -71 -15 -95 -14 -13
-25 -30 -25 -37 0 -21 -46 -63 -70 -63 -28 0 -25 17 8 32 23 12 27 19 24 52
-3 33 -1 37 16 32 12 -4 26 0 36 9 20 21 21 17 -9 75 -26 52 -32 80 -15 80 6
0 10 -3 10 -7 0 -5 4 -14 9 -21 12 -20 71 12 71 38 0 34 71 55 98 28z m822 8
c0 -2 -8 -10 -17 -17 -16 -13 -17 -12 -4 4 13 16 21 21 21 13z m-1396 -743 c6
-118 11 -288 22 -776 6 -255 -2 -497 -16 -497 -4 0 -10 251 -13 558 -4 306
-10 619 -13 695 -5 90 -3 137 3 137 6 0 13 -49 17 -117z m2986 -127 c0 -9 -41
8 -52 22 -11 13 -8 12 20 -2 17 -9 32 -18 32 -20z m27 -68 c17 -19 21 -37 21
-101 1 -73 -1 -78 -26 -94 -15 -9 -28 -18 -30 -19 -7 -5 29 -64 39 -64 23 0
59 -50 59 -81 0 -61 -51 -88 -90 -49 -21 21 -28 94 -10 105 5 3 3 20 -7 41
-14 28 -21 34 -38 29 -64 -21 -75 -19 -115 24 -22 22 -45 41 -53 41 -21 0 -65
45 -73 74 -18 71 70 104 127 47 31 -31 37 -68 17 -101 -10 -15 -9 -23 6 -39
11 -12 27 -21 37 -21 24 0 124 45 133 59 10 16 -3 51 -19 51 -33 0 -72 90 -48
113 14 14 50 6 70 -15z m-1113 -129 c15 -22 12 -43 -11 -70 -7 -9 -10 -18 -7
-22 12 -11 -26 -57 -46 -57 -26 0 -26 -32 0 -68 23 -31 18 -62 -9 -62 -35 0
-56 51 -31 76 12 12 1 56 -12 48 -13 -8 -36 14 -54 52 -20 41 -15 69 11 69 17
0 20 -7 20 -50 l0 -50 40 3 c63 6 85 35 45 60 -24 15 -26 40 -4 70 19 28 39
28 58 1z m744 -625 c49 -34 69 -128 35 -166 -34 -37 -82 -12 -108 57 -19 47
-15 84 11 109 19 20 34 20 62 0z"/>
<path d="M5280 5304 c-31 -26 -51 -58 -64 -101 -6 -19 -3 -23 13 -23 29 0 56
-47 55 -95 -1 -52 -29 -94 -66 -102 -28 -5 -28 -7 -22 -57 3 -28 14 -67 23
-86 l16 -35 95 -6 c93 -5 95 -5 121 22 46 47 72 131 73 239 1 108 -12 155 -57
206 -60 69 -132 84 -187 38z"/>
<path d="M4026 5089 c-30 -35 -31 -46 -11 -73 21 -28 19 -62 -6 -87 -19 -19
-21 -29 -15 -75 9 -74 33 -132 59 -140 12 -4 34 -15 49 -26 l28 -19 11 28 c17
44 23 250 10 315 -22 105 -75 137 -125 77z"/>
<path d="M4394 4626 c-36 -16 -65 -52 -58 -71 17 -42 198 -55 236 -17 18 18
-19 68 -62 86 -49 19 -75 20 -116 2z"/>
<path d="M5051 4471 c-11 -7 -9 -10 10 -13 21 -3 18 -7 -26 -30 -222 -115
-525 -173 -703 -134 -81 17 -202 68 -227 96 -15 17 -15 19 2 29 16 9 15 10 -8
11 -33 0 -138 -31 -122 -37 6 -2 29 0 49 6 35 10 40 8 74 -23 85 -77 223 -119
385 -119 173 1 299 35 504 134 105 51 131 60 168 57 53 -4 56 5 4 20 -46 14
-91 15 -110 3z"/>
<path d="M3064 3845 c-10 -25 4 -45 31 -45 30 0 43 24 25 45 -16 19 -49 19
-56 0z"/>
<path d="M2750 3822 c-34 -11 -39 -46 -10 -62 26 -14 60 3 60 30 0 22 -28 40
-50 32z"/>
<path d="M6930 3834 c-28 -12 -614 -235 -740 -282 -151 -57 -199 -97 -226
-187 -15 -55 -15 -75 10 -424 35 -483 59 -603 168 -813 72 -141 182 -283 342
-444 154 -154 273 -241 432 -316 71 -33 103 -43 158 -46 63 -4 74 -2 140 32
315 160 666 607 755 961 39 158 44 229 39 613 -4 266 -9 377 -18 402 -22 59
-62 110 -104 135 -23 13 -219 101 -436 195 -317 138 -406 172 -450 176 -30 2
-62 1 -70 -2z m615 -768 c39 -42 51 -92 32 -138 -8 -18 -58 -83 -113 -144 -54
-61 -173 -194 -263 -295 -90 -101 -175 -194 -190 -206 -29 -25 -88 -31 -124
-11 -28 14 -298 274 -314 302 -7 12 -12 42 -13 68 0 69 37 109 107 115 l52 5
78 -72 c43 -40 91 -87 106 -104 17 -20 30 -27 35 -20 18 28 464 523 475 528 7
2 32 5 56 5 37 1 48 -4 76 -33z"/>
<path d="M4762 3563 c-19 -8 -43 -60 -35 -80 22 -62 85 -82 128 -38 30 30 32
64 4 99 -20 25 -61 34 -97 19z"/>
<path d="M3990 3511 c-21 -40 -4 -113 29 -126 19 -7 51 28 51 56 0 11 -7 35
-14 54 -17 40 -49 47 -66 16z"/>
<path d="M5010 3375 c-11 -13 -10 -19 5 -35 23 -25 58 -10 53 23 -4 27 -39 34
-58 12z"/>
<path d="M4784 3215 c-9 -23 3 -45 24 -45 11 0 25 7 32 15 16 19 -3 45 -32 45
-10 0 -21 -7 -24 -15z"/>
<path d="M4040 3181 c0 -24 18 -37 31 -24 13 13 1 43 -17 43 -8 0 -14 -9 -14
-19z"/>
<path d="M4312 3467 c-28 -30 -28 -69 1 -101 34 -38 62 -42 92 -12 32 32 32
66 -1 105 -31 37 -62 40 -92 8z"/>
<path d="M4302 2949 c-50 -25 -77 -60 -93 -120 -38 -145 127 -283 268 -224 48
20 71 41 94 87 81 159 -107 340 -269 257z m136 -82 c13 -6 26 -24 29 -39 3
-15 12 -33 19 -39 8 -6 14 -24 14 -39 0 -57 -125 -81 -191 -37 -39 26 -47 51
-26 75 8 9 17 28 19 42 2 17 14 31 38 42 35 18 55 17 98 -5z"/>
<path d="M4333 2849 c-13 -4 -23 -14 -23 -21 1 -43 52 -51 58 -9 5 30 -8 41
-35 30z"/>
<path d="M4397 2853 c-4 -3 -7 -17 -7 -29 0 -23 31 -41 50 -29 17 10 11 44 -9
55 -23 12 -26 12 -34 3z"/>
<path d="M4343 2783 c-29 -4 -33 -8 -33 -33 0 -26 5 -31 40 -40 24 -6 53 -7
72 -2 29 7 33 13 36 46 3 33 1 36 -15 28 -10 -5 -27 -6 -38 -1 -11 4 -22 7
-25 7 -3 -1 -20 -3 -37 -5z m27 -38 c0 -8 -4 -15 -10 -15 -5 0 -10 7 -10 15 0
8 5 15 10 15 6 0 10 -7 10 -15z m50 1 c0 -8 -4 -18 -10 -21 -5 -3 -10 3 -10
14 0 12 5 21 10 21 6 0 10 -6 10 -14z"/>
<path d="M5074 2945 c-8 -19 3 -35 26 -35 19 0 30 17 23 38 -6 17 -42 15 -49
-3z"/>
<path d="M4853 2834 c-3 -8 2 -23 11 -32 14 -15 18 -15 31 -1 9 9 13 23 9 32
-8 21 -43 22 -51 1z"/>
<path d="M4126 2821 c-8 -12 3 -41 15 -41 5 0 9 11 9 25 0 25 -14 34 -24 16z"/>
<path d="M3070 2755 c-14 -17 -5 -35 19 -35 26 0 44 23 29 38 -16 16 -33 15
-48 -3z"/>
<path d="M5526 1831 c-9 -14 3 -39 21 -46 24 -9 37 9 24 34 -12 22 -36 28 -45
12z"/>
<path d="M5301 1782 c-14 -25 12 -62 43 -62 42 0 42 58 0 74 -25 10 -33 7 -43
-12z"/>
<path d="M5564 1516 c-10 -26 1 -51 22 -54 26 -4 38 22 24 49 -13 22 -38 25
-46 5z"/>
<path d="M4420 1706 c-14 -18 -6 -50 13 -44 15 6 22 37 10 49 -6 6 -15 4 -23
-5z"/>
<path d="M4295 1660 c-8 -13 4 -32 16 -25 12 8 12 35 0 35 -6 0 -13 -4 -16
-10z"/>
<path d="M4365 1491 c-8 -15 3 -31 21 -31 9 0 14 7 12 17 -4 20 -24 28 -33 14z"/>
</g>
</svg>
